<?xml version="1.0" encoding="UTF-8"?>
<svg version="1.1" xmlns="http://www.w3.org/2000/svg" width="512" height="512">
<path d="M0 0 C2.94018893 1.85607335 5.63626865 3.88400847 8.3515625 6.0546875 C13.22473766 9.63409935 17.0995227 10.24934665 23.10668945 10.25537109 C23.80348312 10.25899155 24.50027679 10.262612 25.21818542 10.26634216 C26.72681181 10.27321586 28.23546295 10.27574541 29.74410439 10.27439499 C32.14761972 10.27342362 34.55069515 10.28644901 36.95414734 10.30337524 C43.78653438 10.34942516 50.61887905 10.37418618 57.45141602 10.38085938 C61.63954265 10.38593442 65.82721627 10.41049262 70.01518822 10.44618607 C71.59564656 10.45585756 73.1761683 10.45838677 74.75664711 10.45301437 C88.52778973 10.40845224 101.98599179 12.07822658 114.3125 18.75 C114.96927734 19.09289062 115.62605469 19.43578125 116.30273438 19.7890625 C136.39519501 30.55217924 149.80163493 47.10023421 157.21875 68.51953125 C160.14088538 78.31912098 160.76695713 87.8276786 161 98 C161.93199219 97.96132812 162.86398437 97.92265625 163.82421875 97.8828125 C167.82268997 98.03035756 169.17827217 99.25889296 172 102 C173.67684287 105.35368573 173.31087794 109.06589638 173.375 112.75 C173.41238281 113.54921875 173.44976562 114.3484375 173.48828125 115.171875 C173.5511315 119.41775822 173.33607873 122.15223031 170.6015625 125.515625 C166.6102248 129.32717271 164.43886838 129.10071978 159 129 C158.90064121 134.69249459 158.82830077 140.38447718 158.78027344 146.07763672 C158.76023859 148.01164552 158.73300271 149.94559435 158.69824219 151.87939453 C158.64936429 154.66974743 158.62694981 157.45929501 158.609375 160.25 C158.58872986 161.10553467 158.56808472 161.96106934 158.54681396 162.8425293 C158.54486831 168.12484748 159.42745802 171.75246206 162.06549072 176.34863281 C164.98972516 181.51603448 164.7101474 188.06529447 163.3515625 193.6796875 C160.68227666 201.9156891 156.63648312 208.35795573 148.8125 212.4375 C144.23318541 214.5173109 140.28506884 215.1224413 135.25 215.0625 C134.26515625 215.05347656 133.2803125 215.04445312 132.265625 215.03515625 C131.51796875 215.02355469 130.7703125 215.01195312 130 215 C130.02094727 215.63800537 130.04189453 216.27601074 130.06347656 216.93334961 C130.4490108 230.5209914 130.28272822 243.02382577 126 256 C125.68651611 256.96341309 125.68651611 256.96341309 125.36669922 257.94628906 C120.84665009 271.37439006 110.79076317 292.44674621 97.67211914 299.19799805 C94.63336618 300.87901669 92.99970468 302.12763454 91 305 C89.44392065 311.79504274 90.15940348 319.0305619 90.4375 325.9375 C90.48267719 327.88076708 90.52373613 329.82413455 90.56054688 331.76757812 C90.6517498 336.51621017 90.82772973 341.25087024 91 346 C99.91 349.63 108.82 353.26 118 357 C118.99 353.04 119.98 349.08 121 345 C121.98037251 342.1630153 122.96603779 339.44258879 124.125 336.6875 C124.4250293 335.97239258 124.72505859 335.25728516 125.03417969 334.52050781 C130.69057604 321.46063245 138.39618722 310.44226861 148 300 C148.79019531 299.12730469 149.58039063 298.25460937 150.39453125 297.35546875 C161.42393723 285.74075432 174.43085655 277.44558083 189 271 C190.08925781 270.51789063 191.17851562 270.03578125 192.30078125 269.5390625 C221.152537 257.68217658 254.99612598 257.52885318 284 269 C316.85609428 283.0256831 342.23507881 307.69707768 355.77734375 340.90625 C357.4345807 345.20610804 358.76800025 349.56200091 360 354 C360.47953125 355.66869141 360.47953125 355.66869141 360.96875 357.37109375 C365.33005642 375.80568989 365.34052036 399.846292 360 418 C359.81195801 418.65323242 359.62391602 419.30646484 359.43017578 419.97949219 C354.28029995 437.39156243 345.6685702 453.13594969 334 467 C333.44570313 467.69351562 332.89140625 468.38703125 332.3203125 469.1015625 C313.93117244 491.66553435 283.51802246 506.01978919 255.15234375 509.69140625 C244.96952605 510.6062789 233.85416341 511.05690323 223.73638439 509.49675465 C217.29475203 508.68239865 210.80957513 508.87983276 204.32868958 508.90666199 C202.83217152 508.90909235 201.33565266 508.91106637 199.83913344 508.91262513 C196.59399121 508.91698888 193.34887786 508.92456889 190.10374832 508.93462753 C184.82320474 508.9509891 179.54266136 508.96038637 174.26210022 508.96897888 C166.59674648 508.9820876 158.93140524 508.99842639 151.26606178 509.01653099 C139.15367625 509.04475155 127.04128734 509.06140426 114.92887878 509.07600403 C110.78376861 509.081128 106.63865851 509.08630201 102.49354839 509.09147358 C100.93987673 509.09340263 100.93987673 509.09340263 99.35481775 509.09537065 C87.57256173 509.11009516 75.79030855 509.12657962 64.00805664 509.14428711 C62.93128966 509.14590185 61.85452267 509.1475166 60.74512639 509.14918027 C43.27643603 509.17574436 25.80778391 509.21350739 8.33912221 509.25447568 C-9.59557416 509.29617946 -27.53025028 509.32262739 -45.46499044 509.33568364 C-56.5286658 509.34428816 -67.59217758 509.36535477 -78.65579519 509.40231238 C-86.23122838 509.42655013 -93.80659167 509.43628468 -101.38206311 509.43449231 C-105.75539559 509.43391337 -110.12846414 509.43994255 -114.5017395 509.46336365 C-118.50304348 509.48466085 -122.50392079 509.48761189 -126.50526015 509.4758083 C-127.95464147 509.47480932 -129.4040464 509.48062653 -130.85336771 509.49385395 C-132.82004555 509.51082459 -134.78690126 509.50081216 -136.75361919 509.489398 C-137.84705409 509.49145896 -138.94048898 509.49351991 -140.06705827 509.49564332 C-143.7037049 508.88107959 -145.37125465 507.53472418 -148 505 C-149.5600905 501.87981901 -149.20516037 498.55241245 -149.23828125 495.125 C-149.25038887 493.92810547 -149.25038887 493.92810547 -149.26274109 492.70703125 C-149.27660237 491.00555599 -149.28731534 489.30405268 -149.29516602 487.60253906 C-149.30653178 485.89607347 -149.32672927 484.18963886 -149.35668945 482.48339844 C-149.85625231 454.0055249 -141.0006035 426.57820475 -122 405 C-120.97132812 403.77410156 -120.97132812 403.77410156 -119.921875 402.5234375 C-108.22288285 388.9307236 -94.08007894 379.16338667 -77.59375 372.34375 C-76.78562363 372.00656952 -75.97749725 371.66938904 -75.1448822 371.32199097 C-64.03048158 366.72249167 -52.7898968 362.43893407 -41.5625 358.125 C-38.2356233 356.84545058 -34.90909545 355.56502233 -31.58348083 354.28219604 C-29.53530617 353.49222461 -27.48639967 352.70414719 -25.43666077 351.91824341 C-24.51727219 351.56382172 -23.59788361 351.20940002 -22.65063477 350.84423828 C-21.84634537 350.53527618 -21.04205597 350.22631409 -20.21339417 349.9079895 C-17.98519302 349.03621723 -17.98519302 349.03621723 -15.89683533 347.88473511 C-14 347 -14 347 -11 347 C-10.67 333.8 -10.34 320.6 -10 307 C-11.32 306.34 -12.64 305.68 -14 305 C-34.89902026 288.84465457 -48.83604854 265.67295417 -52.73046875 239.50390625 C-53.35709795 231.35772668 -53.14913354 223.16334056 -53 215 C-53.82242188 215.04640625 -54.64484375 215.0928125 -55.4921875 215.140625 C-64.93767372 215.44602178 -71.43002628 214.01790718 -79.3125 208.8125 C-86.52747447 201.26194532 -88.3094423 193.7256634 -88.21484375 183.51953125 C-87.85630468 177.64600935 -86.69660788 173.61769589 -82.3125 169.4375 C-77.97056562 164.52185657 -79.67723745 157.09922671 -80 151 C-80.08267383 149.04304994 -80.16328467 147.08601198 -80.2421875 145.12890625 C-80.46597707 139.75104419 -80.72301801 134.37536592 -81 129 C-81.92167969 129.04898438 -82.84335938 129.09796875 -83.79296875 129.1484375 C-88.49565435 128.93077361 -89.69893413 127.2242969 -93 124 C-94.6196057 120.7607886 -94.22623755 117.24295619 -94.25 113.6875 C-94.270625 112.92759766 -94.29125 112.16769531 -94.3125 111.38476562 C-94.34466676 106.75677313 -94.00966447 103.74801673 -91 100 C-87.77208445 97.8480563 -86.71599191 97.79913557 -83 98 C-83.10393066 97.10535034 -83.10393066 97.10535034 -83.20996094 96.19262695 C-85.72849166 73.09339809 -84.53505145 52.15088894 -69.6875 33.125 C-60.00261883 22.02401016 -46.08432739 12.48370433 -31 11 C-29.86304687 10.98453125 -28.72609375 10.9690625 -27.5546875 10.953125 C-20.74780151 11.10764283 -20.74780151 11.10764283 -14.91015625 8.23046875 C-13.34993969 6.11910438 -13.34993969 6.11910438 -12.2109375 3.91015625 C-9.389921 -0.53976978 -4.85086875 -0.76997917 0 0 Z " fill="#F7F1EE" transform="translate(149,1)"/>
<path d="M0 0 C2.94018893 1.85607335 5.63626865 3.88400847 8.3515625 6.0546875 C13.22473766 9.63409935 17.0995227 10.24934665 23.10668945 10.25537109 C23.80348312 10.25899155 24.50027679 10.262612 25.21818542 10.26634216 C26.72681181 10.27321586 28.23546295 10.27574541 29.74410439 10.27439499 C32.14761972 10.27342362 34.55069515 10.28644901 36.95414734 10.30337524 C43.78653438 10.34942516 50.61887905 10.37418618 57.45141602 10.38085938 C61.63954265 10.38593442 65.82721627 10.41049262 70.01518822 10.44618607 C71.59564656 10.45585756 73.1761683 10.45838677 74.75664711 10.45301437 C88.52778973 10.40845224 101.98599179 12.07822658 114.3125 18.75 C114.96927734 19.09289062 115.62605469 19.43578125 116.30273438 19.7890625 C136.39519501 30.55217924 149.80163493 47.10023421 157.21875 68.51953125 C160.14088538 78.31912098 160.76695713 87.8276786 161 98 C161.93199219 97.96132812 162.86398437 97.92265625 163.82421875 97.8828125 C167.82268997 98.03035756 169.17827217 99.25889296 172 102 C173.67684287 105.35368573 173.31087794 109.06589638 173.375 112.75 C173.41238281 113.54921875 173.44976562 114.3484375 173.48828125 115.171875 C173.5511315 119.41775822 173.33607873 122.15223031 170.6015625 125.515625 C166.6102248 129.32717271 164.43886838 129.10071978 159 129 C158.90064121 134.69249459 158.82830077 140.38447718 158.78027344 146.07763672 C158.76023859 148.01164552 158.73300271 149.94559435 158.69824219 151.87939453 C158.64936429 154.66974743 158.62694981 157.45929501 158.609375 160.25 C158.58872986 161.10553467 158.56808472 161.96106934 158.54681396 162.8425293 C158.54486831 168.12484748 159.42745802 171.75246206 162.06549072 176.34863281 C164.98972516 181.51603448 164.7101474 188.06529447 163.3515625 193.6796875 C160.68227666 201.9156891 156.63648312 208.35795573 148.8125 212.4375 C144.23318541 214.5173109 140.28506884 215.1224413 135.25 215.0625 C134.26515625 215.05347656 133.2803125 215.04445312 132.265625 215.03515625 C131.14414062 215.01775391 131.14414062 215.01775391 130 215 C130.02094727 215.63800537 130.04189453 216.27601074 130.06347656 216.93334961 C130.4490108 230.5209914 130.28272822 243.02382577 126 256 C125.68651611 256.96341309 125.68651611 256.96341309 125.36669922 257.94628906 C120.84971956 271.36527134 110.77982173 292.48924414 97.64794922 299.20239258 C94.59971431 300.8801425 92.97397265 302.10243283 91 305 C89.52102479 312.65056605 90.77090508 320.97799523 91.33544922 328.68579102 C92.48489839 345.7418034 92.48489839 345.7418034 88.72875977 350.3984375 C85.9426019 352.94267714 83.17271998 354.96874845 80 357 C78.2138703 358.43955809 76.44073486 359.89555608 74.6875 361.375 C73.78128906 362.10589844 72.87507812 362.83679688 71.94140625 363.58984375 C69.22200247 365.81809359 66.55670145 368.09422997 63.90161133 370.39794922 C58.67057415 374.93098762 53.40082561 379.42009528 48 383.75 C46.989375 384.56984375 45.97875 385.3896875 44.9375 386.234375 C41.52172079 388.28747633 39.91296894 388.6694602 36 388 C33.4296875 386.41796875 33.4296875 386.41796875 30.875 384.1875 C29.92367187 383.36636719 28.97234375 382.54523438 27.9921875 381.69921875 C24.45813895 378.53247951 20.96197459 375.32368702 17.48632812 372.09301758 C13.36350662 368.27620757 9.05783213 364.72858236 4.6796875 361.20703125 C1.03848202 358.20807921 -2.43614283 355.04173216 -5.90625 351.84765625 C-8.06333263 349.86054661 -8.06333263 349.86054661 -11 348 C-11.19501281 344.87175721 -11.20564503 341.95470322 -11.07421875 338.8359375 C-11.03455742 337.47512558 -11.03455742 337.47512558 -10.99409485 336.08682251 C-10.90615109 333.18222562 -10.79706582 330.27885399 -10.6875 327.375 C-10.62425998 325.40889842 -10.56239331 323.44275214 -10.50195312 321.4765625 C-10.35058122 316.65037829 -10.18024223 311.82518878 -10 307 C-10.93356323 306.54862671 -10.93356323 306.54862671 -11.88598633 306.08813477 C-29.19757159 297.17743659 -42.20369992 275.79539911 -48.23510742 257.85522461 C-52.74797246 243.44883704 -53.27363748 229.97849457 -53 215 C-53.82242188 215.04640625 -54.64484375 215.0928125 -55.4921875 215.140625 C-64.93767372 215.44602178 -71.43002628 214.01790718 -79.3125 208.8125 C-86.52747447 201.26194532 -88.3094423 193.7256634 -88.21484375 183.51953125 C-87.85630468 177.64600935 -86.69660788 173.61769589 -82.3125 169.4375 C-77.97056562 164.52185657 -79.67723745 157.09922671 -80 151 C-80.08267383 149.04304994 -80.16328467 147.08601198 -80.2421875 145.12890625 C-80.46597707 139.75104419 -80.72301801 134.37536592 -81 129 C-81.92167969 129.04898438 -82.84335938 129.09796875 -83.79296875 129.1484375 C-88.49565435 128.93077361 -89.69893413 127.2242969 -93 124 C-94.6196057 120.7607886 -94.22623755 117.24295619 -94.25 113.6875 C-94.270625 112.92759766 -94.29125 112.16769531 -94.3125 111.38476562 C-94.34466676 106.75677313 -94.00966447 103.74801673 -91 100 C-87.77208445 97.8480563 -86.71599191 97.79913557 -83 98 C-83.06928711 97.40356689 -83.13857422 96.80713379 -83.20996094 96.19262695 C-85.72849166 73.09339809 -84.53505145 52.15088894 -69.6875 33.125 C-60.00261883 22.02401016 -46.08432739 12.48370433 -31 11 C-29.86304687 10.98453125 -28.72609375 10.9690625 -27.5546875 10.953125 C-20.74780151 11.10764283 -20.74780151 11.10764283 -14.91015625 8.23046875 C-13.34993969 6.11910438 -13.34993969 6.11910438 -12.2109375 3.91015625 C-9.389921 -0.53976978 -4.85086875 -0.76997917 0 0 Z " fill="#FEDECF" transform="translate(149,1)"/>
<path d="M0 0 C18.8515429 16.47636222 31.99507983 37.95457734 38.6875 62.0625 C39.0071875 63.17496094 39.326875 64.28742188 39.65625 65.43359375 C44.01755642 83.86818989 44.02802036 107.908792 38.6875 126.0625 C38.49945801 126.71573242 38.31141602 127.36896484 38.11767578 128.04199219 C32.96779995 145.45406243 24.3560702 161.19844969 12.6875 175.0625 C11.85605469 176.10277344 11.85605469 176.10277344 11.0078125 177.1640625 C1.51264637 188.81488796 -12.00603517 198.32258052 -25.3125 205.0625 C-25.9725 205.0625 -26.6325 205.0625 -27.3125 205.0625 C-27.56227097 198.91044893 -27.74232956 192.7614312 -27.86181641 186.60546875 C-27.91168583 184.518031 -27.97961237 182.43093488 -28.06689453 180.34472656 C-28.66927826 165.56152122 -27.30307903 157.1013541 -17.3125 146.0625 C-15.66051796 143.47856606 -14.46801366 140.89326031 -13.3125 138.0625 C-13.05061386 137.44437439 -12.78872772 136.82624878 -12.51890564 136.18939209 C-9.3067277 127.29529473 -9.85900489 118.02551724 -9.87890625 108.703125 C-9.87433871 106.82606824 -9.86903143 104.94901315 -9.86302185 103.07196045 C-9.85412558 99.1551632 -9.85647674 95.23857028 -9.86645508 91.32177734 C-9.87798278 86.30926674 -9.85765758 81.29745665 -9.82853794 76.28503799 C-9.81018077 72.41592967 -9.81046671 68.54698976 -9.81617546 64.67784882 C-9.81632851 62.82951622 -9.81029795 60.98117208 -9.79788399 59.13288116 C-9.78297217 56.55070502 -9.79364909 53.96983123 -9.81079102 51.38769531 C-9.80112305 50.63016464 -9.79145508 49.87263397 -9.78149414 49.09214783 C-9.85287319 43.94602144 -11.0571597 41.02036253 -14.3125 37.0625 C-16.82614756 35.23630913 -16.82614756 35.23630913 -19.3125 34.0625 C-19.9725 33.7325 -20.6325 33.4025 -21.3125 33.0625 C-25.9650089 32.93222975 -30.0117022 33.37340632 -33.6875 36.375 C-35.78887796 38.52641077 -37.64792206 40.56563309 -39.3125 43.0625 C-39.44205078 42.17498047 -39.44205078 42.17498047 -39.57421875 41.26953125 C-40.56345968 35.70618549 -41.75330335 32.7320973 -46.3125 29.0625 C-50.77254133 26.08913911 -55.08382734 26.31447816 -60.3125 27.0625 C-62.94698562 28.43517788 -64.23764805 29.83203415 -66.3125 32.0625 C-67.30896854 33.06601903 -68.30813007 34.06688911 -69.3125 35.0625 C-69.35117187 33.32613281 -69.35117187 33.32613281 -69.390625 31.5546875 C-69.44693349 30.01558872 -69.5042802 28.47652767 -69.5625 26.9375 C-69.57667969 26.17695313 -69.59085938 25.41640625 -69.60546875 24.6328125 C-69.83297912 19.35457196 -70.86875641 16.27363396 -74.3125 12.0625 C-78.46915794 8.38917438 -81.72801097 7.41710321 -87.1328125 7.671875 C-91.33839355 8.42556336 -94.06898185 10.71815606 -96.90234375 13.78125 C-98.74532908 16.76269995 -99.04981527 19.34954053 -99.5 22.8125 C-99.65855469 23.98296875 -99.81710937 25.1534375 -99.98046875 26.359375 C-100.09003906 27.25140625 -100.19960938 28.1434375 -100.3125 29.0625 C-101.034375 28.299375 -101.75625 27.53625 -102.5 26.75 C-107.65220363 21.8267832 -110.89430091 20.72892403 -117.91015625 20.6640625 C-120.76640302 21.13778148 -122.09502339 22.25990611 -124.3125 24.0625 C-124.9725 24.0625 -125.6325 24.0625 -126.3125 24.0625 C-126.621875 24.84625 -126.93125 25.63 -127.25 26.4375 C-128.3125 29.0625 -128.3125 29.0625 -129.3125 31.0625 C-129.46995826 34.1229194 -129.57116877 37.163919 -129.62890625 40.2265625 C-129.6600779 41.58737442 -129.6600779 41.58737442 -129.69187927 42.97567749 C-129.75737135 45.8795398 -129.81625814 48.78349405 -129.875 51.6875 C-129.91818555 53.65365542 -129.96179985 55.61980147 -130.00585938 57.5859375 C-130.11305239 62.41136362 -130.21432081 67.2368824 -130.3125 72.0625 C-131.28106934 71.97363525 -132.24963867 71.88477051 -133.24755859 71.79321289 C-134.51422363 71.6874292 -135.78088867 71.58164551 -137.0859375 71.47265625 C-138.34325684 71.3631665 -139.60057617 71.25367676 -140.89599609 71.14086914 C-144.43280865 70.83763833 -144.43280865 70.83763833 -147.9375 72.5 C-155.12525071 80.25520471 -154.91058646 88.22939586 -154.77905273 98.22290039 C-154.75035931 100.5952922 -154.75841214 102.96540323 -154.77148438 105.33789062 C-154.74566434 124.19401693 -151.09527022 140.86678944 -139.3125 156.0625 C-138.84457031 156.67222656 -138.37664062 157.28195312 -137.89453125 157.91015625 C-136.13797269 160.10990804 -134.73233912 161.85108171 -132.19238281 163.13012695 C-129.51527061 165.8819897 -129.85797187 168.0716375 -129.85931396 171.80595398 C-129.87995911 172.70916885 -129.90060425 173.61238373 -129.921875 174.54296875 C-129.92753479 175.47095779 -129.93319458 176.39894684 -129.93902588 177.35505676 C-129.96142624 180.32056146 -130.01162927 183.2848602 -130.0625 186.25 C-130.08256027 188.25974818 -130.10081187 190.26951529 -130.1171875 192.27929688 C-130.16130304 197.20749629 -130.23035576 202.13479365 -130.3125 207.0625 C-151.49598385 203.34602058 -171.71003261 181.76698233 -183.92822266 165.04931641 C-203.8079113 136.51652872 -210.12063513 101.89529818 -204.21704102 67.93408203 C-198.05236693 35.94372567 -178.8944505 8.12417483 -152.2421875 -10.3984375 C-145.93850205 -14.58721597 -139.22281533 -17.88028554 -132.3125 -20.9375 C-131.22324219 -21.41960937 -130.13398438 -21.90171875 -129.01171875 -22.3984375 C-85.15344917 -40.4223839 -35.63126327 -30.25920943 0 0 Z " fill="#C8EEFD" transform="translate(470.3125,292.9375)"/>
<path d="M0 0 C4.9710149 2.53240382 8.49430567 5.98861134 11 11 C11.2322646 13.71262116 11.41936235 16.40773126 11.5625 19.125 C11.60568359 19.87910156 11.64886719 20.63320313 11.69335938 21.41015625 C11.7994832 23.27321888 11.90025001 25.13658524 12 27 C13.1446875 25.576875 13.1446875 25.576875 14.3125 24.125 C16.64134938 21.22967374 18.61842787 19.20899578 22.453125 18.62890625 C28.23087009 18.49172515 32.13854652 18.75731822 36.6328125 22.57421875 C39.9486749 26.03218954 41.327877 29.295139 42 34 C42.37511719 33.51789063 42.75023437 33.03578125 43.13671875 32.5390625 C47.02538438 27.73945 49.61837502 25.35974734 55.9375 24.6875 C61.10726555 25.2150271 64.48493159 27.15165092 67.8125 31.0625 C71.10618314 35.48544594 71.16297561 38.42974869 71.19287109 43.79174805 C71.20513733 44.99962479 71.20513733 44.99962479 71.21765137 46.23190308 C71.24254226 48.90850079 71.25904258 51.58504482 71.2734375 54.26171875 C71.27876118 55.17893015 71.28408485 56.09614155 71.28956985 57.04114723 C71.31633423 61.90836374 71.33568712 66.77555448 71.35009766 71.64282227 C71.36336503 75.64956866 71.39107812 79.65579705 71.43212891 83.66235352 C71.48184204 88.51472542 71.50626757 93.36663219 71.51332474 98.21924782 C71.51998146 100.05739222 71.53505514 101.89552856 71.55921555 103.73352623 C71.74973697 119.12207813 69.81118483 132.22124865 60.25 144.875 C59.75628906 145.56207031 59.26257813 146.24914062 58.75390625 146.95703125 C55.39313616 151.60686384 55.39313616 151.60686384 54 153 C53.87778475 154.44184293 53.82227242 155.88943144 53.79467773 157.33618164 C53.77473251 158.2570607 53.75478729 159.17793976 53.73423767 160.12672424 C53.71752518 161.12775681 53.70081268 162.12878937 53.68359375 163.16015625 C53.6524221 164.68956093 53.6524221 164.68956093 53.62062073 166.24986267 C53.55501148 169.52067048 53.49618766 172.79156137 53.4375 176.0625 C53.39432558 178.27409728 53.35071166 180.48568603 53.30664062 182.69726562 C53.1993186 188.13142151 53.09757377 193.56566082 53 199 C22.03249834 212.64687879 -9.57404365 215.17215426 -41.79296875 204.28125 C-42.85128906 203.8584375 -43.90960938 203.435625 -45 203 C-45.88091309 202.6704834 -46.76182617 202.3409668 -47.66943359 202.00146484 C-50 200 -50 200 -50.43202209 198.14080811 C-50.57811016 195.64589444 -50.56014964 193.1937333 -50.49609375 190.6953125 C-50.49792419 188.81380196 -50.49988126 186.93229154 -50.50195312 185.05078125 C-50.47468725 182.08592482 -50.43744835 179.12141159 -50.39477539 176.15673828 C-50.36214265 173.29410845 -50.36533109 170.4330832 -50.37109375 167.5703125 C-50.34631454 166.68683136 -50.32153534 165.80335022 -50.29600525 164.89309692 C-50.23691647 160.31366527 -50.23691647 160.31366527 -52.29432678 156.3921814 C-54.08330997 154.86686346 -54.08330997 154.86686346 -57 153 C-69.29686207 138.90605957 -75.05012599 122.44986394 -75.23828125 103.8203125 C-75.246353 103.04871796 -75.25442474 102.27712341 -75.26274109 101.48214722 C-75.27650849 99.85677286 -75.28726313 98.23137048 -75.29516602 96.60595703 C-75.3066976 94.95547928 -75.32716821 93.30503916 -75.35668945 91.65478516 C-75.39959895 89.25137382 -75.41556312 86.84906042 -75.42578125 84.4453125 C-75.44328934 83.71796906 -75.46079742 82.99062561 -75.47883606 82.24124146 C-75.45597559 76.76535239 -74.02397752 72.58083222 -71 68 C-67.64430276 64.88399542 -65.41438207 63.08319895 -60.8125 62.8125 C-56.90799868 63.00452465 -53.72577586 63.87111222 -50 65 C-50.02094727 63.794646 -50.04189453 62.58929199 -50.06347656 61.34741211 C-50.1361483 56.85420723 -50.18189828 52.3610538 -50.21972656 47.86743164 C-50.23978028 45.92658742 -50.26703045 43.98580315 -50.30175781 42.04516602 C-50.35055175 39.24740768 -50.37303127 36.45045155 -50.390625 33.65234375 C-50.41127014 32.7916478 -50.43191528 31.93095184 -50.45318604 31.04417419 C-50.45534839 25.17299722 -49.38616597 21.82540242 -46 17 C-42.4638321 13.71641552 -39.71823206 12.71961741 -35 12.5 C-28.73969362 12.75417785 -25.25354509 15.67204887 -21 20 C-20.92523438 19.28714844 -20.85046875 18.57429688 -20.7734375 17.83984375 C-19.84367435 11.06715728 -18.39213562 6.42464717 -13 2 C-8.77372993 -0.55122401 -4.82084031 -0.67910968 0 0 Z " fill="#FECDBE" transform="translate(390,300)"/>
<path d="M0 0 C1.19367188 -0.00773438 2.38734375 -0.01546875 3.6171875 -0.0234375 C8.61475983 0.54421548 11.83337474 1.84691578 15.109375 5.72265625 C15.69203125 6.61855469 16.2746875 7.51445312 16.875 8.4375 C27.80236374 24.06569191 43.02486539 33.96108451 61.7097168 37.96484375 C79.99886027 41.070652 98.70953913 36.80024063 113.85693359 26.15820312 C117.07494074 23.70767859 120.09228788 21.04733499 123.125 18.375 C124.115 17.715 125.105 17.055 126.125 16.375 C126.21836811 26.38163758 126.28909965 36.3881687 126.33224869 46.39515591 C126.35297554 51.04362496 126.38101458 55.69179237 126.42675781 60.34008789 C126.47075515 64.83999079 126.49424858 69.33960666 126.50450897 73.83970833 C126.51180505 75.54222179 126.52604688 77.24472255 126.54792023 78.94711113 C126.90993673 108.33644934 116.2196951 133.14121608 96.125 154.375 C93.27701254 156.98725877 90.31397971 159.20020261 87.125 161.375 C86.28453125 162.02597656 85.4440625 162.67695313 84.578125 163.34765625 C77.43041407 168.54317445 71.84354505 169.72603429 63.125 168.375 C47.09986482 164.88552268 32.40093394 157.2012046 20.125 146.375 C19.54105469 145.93285156 18.95710938 145.49070312 18.35546875 145.03515625 C-0.74747119 130.31649761 -10.71474804 105.05737488 -14.39624023 82.12866211 C-15.2131105 75.43207456 -15.08162144 68.66627343 -15.11328125 61.9296875 C-15.11735678 61.19429874 -15.1214323 60.45890999 -15.12563133 59.70123672 C-15.14637245 55.81694074 -15.16073158 51.93267895 -15.17016602 48.04833984 C-15.18127424 44.04917432 -15.21575812 40.05055843 -15.25533772 36.05158806 C-15.28150617 32.96142563 -15.28985744 29.87139522 -15.29344749 26.78113174 C-15.29830392 25.30677657 -15.30989102 23.83242691 -15.32848549 22.358181 C-15.35290992 20.29547013 -15.35190852 18.23419876 -15.3449707 16.17138672 C-15.35083694 15.00082733 -15.35670319 13.83026794 -15.36274719 12.62423706 C-14.65486902 7.90854823 -12.35000878 4.87533082 -9.0546875 1.5234375 C-5.97269197 -0.10040961 -3.46537999 -0.02235729 0 0 Z " fill="#FFEDE5" transform="translate(152.875,144.625)"/>
<path d="M0 0 C2.94018893 1.85607335 5.63626865 3.88400847 8.3515625 6.0546875 C13.22473766 9.63409935 17.0995227 10.24934665 23.10668945 10.25537109 C23.80348312 10.25899155 24.50027679 10.262612 25.21818542 10.26634216 C26.72681181 10.27321586 28.23546295 10.27574541 29.74410439 10.27439499 C32.14761972 10.27342362 34.55069515 10.28644901 36.95414734 10.30337524 C43.78653438 10.34942516 50.61887905 10.37418618 57.45141602 10.38085938 C61.63954265 10.38593442 65.82721627 10.41049262 70.01518822 10.44618607 C71.59564656 10.45585756 73.1761683 10.45838677 74.75664711 10.45301437 C88.52778973 10.40845224 101.98599179 12.07822658 114.3125 18.75 C114.96927734 19.09289062 115.62605469 19.43578125 116.30273438 19.7890625 C136.39519501 30.55217924 149.80163493 47.10023421 157.21875 68.51953125 C160.17086756 78.41966834 160.68051803 87.69670631 161 98 C150.44 98 139.88 98 129 98 C127.35 94.04 125.7 90.08 124 86 C115.50978946 73.59123074 103.88280694 64.06866374 89 60.5625 C73.54525958 58.3149969 58.73503516 60.5953441 46 70 C35.71606845 77.97310764 31.24920293 86.18929342 26 98 C-9.97 98 -45.94 98 -83 98 C-85.39089323 74.09106774 -85.15248398 52.94207681 -69.6875 33.125 C-60.00261883 22.02401016 -46.08432739 12.48370433 -31 11 C-29.86304688 10.98453125 -28.72609375 10.9690625 -27.5546875 10.953125 C-20.74780151 11.10764283 -20.74780151 11.10764283 -14.91015625 8.23046875 C-13.34993969 6.11910438 -13.34993969 6.11910438 -12.2109375 3.91015625 C-9.389921 -0.53976978 -4.85086875 -0.76997917 0 0 Z " fill="#A79BA7" transform="translate(149,1)"/>
<path d="M0 0 C9.21478457 7.0000724 17.38246643 15.81036199 21 27 C21 27.99 21 28.98 21 30 C22.12494873 29.97905273 23.24989746 29.95810547 24.40893555 29.93652344 C28.59272474 29.86398477 32.77645861 29.8181501 36.96069336 29.78027344 C38.7697078 29.76018947 40.57865757 29.73291659 42.38745117 29.69824219 C44.99153621 29.64958108 47.59476115 29.62699949 50.19921875 29.609375 C51.40731453 29.57840729 51.40731453 29.57840729 52.63981628 29.54681396 C56.6296673 29.54522873 58.53363368 29.70349514 61.98754883 31.89941406 C65.71038446 35.7852903 65.28566075 39.61705373 65.375 44.75 C65.43107422 45.94882813 65.43107422 45.94882813 65.48828125 47.171875 C65.5511315 51.41775822 65.33607873 54.15223031 62.6015625 57.515625 C58.6102248 61.32717271 56.43886838 61.10071978 51 61 C51.01160156 62.03253906 51.02320313 63.06507813 51.03515625 64.12890625 C51.12899065 76.77602405 50.63502928 89.37034858 50 102 C49.20770996 101.39055542 49.20770996 101.39055542 48.39941406 100.76879883 C47.69526367 100.23279053 46.99111328 99.69678223 46.265625 99.14453125 C45.57243164 98.61448486 44.87923828 98.08443848 44.16503906 97.53833008 C36.63741316 92.18970911 30.6084018 91.80070015 21 91 C20.505 78.625 20.505 78.625 20 66 C18.35 69.3 16.7 72.6 15 76 C6.66560372 87.51908429 -5.04678371 95.70184134 -19 99 C-22.76034753 99.44444232 -26.46586157 99.52451111 -30.25 99.5 C-31.76907959 99.49250732 -31.76907959 99.49250732 -33.31884766 99.48486328 C-45.31883303 99.20615146 -54.47117572 95.29667843 -64 88 C-64.61359375 87.55011719 -65.2271875 87.10023438 -65.859375 86.63671875 C-75.74899461 78.86942901 -81.37673043 67.1271771 -84 55 C-84.87880963 44.04094089 -85.1947721 32.92816641 -80 23 C-79.649375 22.24074219 -79.29875 21.48148438 -78.9375 20.69921875 C-72.02074718 6.79366361 -60.2440597 -1.80790983 -45.98046875 -7.0546875 C-30.26526555 -12.03906388 -13.77383451 -8.55506095 0 0 Z " fill="#C9BFC7" transform="translate(257,69)"/>
<path d="M0 0 C-0.93344238 0.05160278 -0.93344238 0.05160278 -1.88574219 0.10424805 C-32.3393305 1.90631818 -60.59954659 9.53377272 -84 30 C-84.96679688 30.82242188 -85.93359375 31.64484375 -86.9296875 32.4921875 C-109.09935048 51.73565335 -124.83272115 81.59123006 -127 111 C-127.93719369 131.04763112 -126.59512861 150.25827221 -119 169 C-118.7309082 169.66708984 -118.46181641 170.33417969 -118.18457031 171.02148438 C-113.45650256 182.44364128 -106.95152416 196.26643617 -97.35351562 204.39428711 C-95.45157788 206.65060828 -95.65644136 208.18811841 -95.70703125 211.10546875 C-95.71669922 212.08837891 -95.72636719 213.07128906 -95.73632812 214.08398438 C-95.76146484 215.10814453 -95.78660156 216.13230469 -95.8125 217.1875 C-95.83280273 218.74114258 -95.83280273 218.74114258 -95.85351562 220.32617188 C-95.88888611 222.88463699 -95.93824456 225.4420578 -96 228 C-117.18348385 224.28352058 -137.39753261 202.70448233 -149.61572266 185.98681641 C-169.4954113 157.45402872 -175.80813513 122.83279818 -169.90454102 88.87158203 C-163.73986693 56.88122567 -144.5819505 29.06167483 -117.9296875 10.5390625 C-111.62600205 6.35028403 -104.91031533 3.05721446 -98 0 C-96.91074219 -0.48210937 -95.82148438 -0.96421875 -94.69921875 -1.4609375 C-67.98433956 -12.43965498 -25.40878498 -16.93918999 0 0 Z " fill="#99E6FC" transform="translate(436,272)"/>
<path d="M0 0 C5.73138909 0.44087608 10.77059797 2.77802088 16 5 C15.85805236 7.06277107 15.71127784 9.12521031 15.5625 11.1875 C15.44068359 12.91033203 15.44068359 12.91033203 15.31640625 14.66796875 C15 18 15 18 14.48046875 20.35546875 C9.53504647 47.57539466 19.13115627 79.24471372 34.19970703 101.79541016 C36.93889604 105.69701418 39.9100319 109.3727975 43 113 C43.43038574 113.51401367 43.86077148 114.02802734 44.30419922 114.55761719 C61.75872527 135.22864285 86.63644658 149.1951809 113 155 C113 155.33 113 155.66 113 156 C55.25 156 -2.5 156 -62 156 C-61.24205273 152.21026366 -60.45384077 149.32879887 -59.03930664 145.81445312 C-58.42135727 144.26987427 -58.42135727 144.26987427 -57.79092407 142.6940918 C-57.33527069 141.567854 -56.87961731 140.44161621 -56.41015625 139.28125 C-55.66608305 137.42640227 -54.92200995 135.5715545 -54.17794037 133.71670532 C-53.09140787 131.01148391 -52.0007896 128.30791545 -50.91047287 125.60421753 C-49.48361809 122.06352307 -48.06135699 118.52098508 -46.63891602 114.97851562 C-44.79558777 110.38832013 -42.95198344 105.79823731 -41.10661316 101.2088623 C-36.36102818 89.40439911 -31.6379134 77.59106265 -26.92371559 65.77403259 C-25.74841684 62.82811401 -24.57272941 59.88235087 -23.39689636 56.93664551 C-23.01113591 55.97022881 -22.62537546 55.0038121 -22.2279253 54.00811005 C-21.45229733 52.06501728 -20.67666196 50.12192746 -19.9010191 48.17884064 C-17.97477965 43.35297112 -16.04934965 38.52678143 -14.1255188 33.69995117 C-12.30115142 29.12294754 -10.47431338 24.5469376 -8.64564896 19.97164917 C-7.96640074 18.27086935 -7.28807333 16.56972147 -6.6106987 14.86819458 C-5.68350104 12.53943352 -4.75316712 10.21195033 -3.82202148 7.88476562 C-3.54848374 7.19552757 -3.274946 6.50628952 -2.99311924 5.79616547 C-1.11407844 1.11407844 -1.11407844 1.11407844 0 0 Z " fill="#F8F2F1" transform="translate(251,353)"/>
<path d="M0 0 C2.4453125 1.75 2.4453125 1.75 5.125 4 C6.57712891 5.21816406 6.57712891 5.21816406 8.05859375 6.4609375 C11.64687099 9.55838797 15.18058379 12.70933557 18.6875 15.8984375 C22.08160475 18.98294486 25.53856989 21.99151955 29 25 C30.25395169 26.09630219 31.50785309 27.19266191 32.76171875 28.2890625 C34.13269199 29.48451322 35.50378696 30.67982435 36.875 31.875 C37.54233154 32.45926758 38.20966309 33.04353516 38.8972168 33.64550781 C39.52668213 34.19303711 40.15614746 34.74056641 40.8046875 35.3046875 C41.37171387 35.79952637 41.93874023 36.29436523 42.52294922 36.80419922 C44.54626124 38.44224588 45.98935087 38.99792212 48.5625 39.5 C53.93702619 38.71825074 56.96941873 35.49003684 61 32 C62.10101519 31.05925491 63.20261321 30.11919165 64.3046875 29.1796875 C66.71687055 27.11878027 69.12157942 25.04948728 71.5234375 22.9765625 C75.33204847 19.70044984 79.21953968 16.52816221 83.13671875 13.3828125 C85.34327922 11.5465207 87.46716343 9.67965043 89.58203125 7.7421875 C90.20078125 7.18466797 90.81953125 6.62714844 91.45703125 6.05273438 C92.66943552 4.95646567 93.86937973 3.84621398 95.0546875 2.72070312 C97.74064983 0.31206173 99.3052736 -0.99453688 102.98046875 -1.0234375 C106.41773745 0.1415876 109.67051387 1.55606891 113 3 C107.86841499 15.85656881 102.72229711 28.70712644 97.5390625 41.54296875 C97.06820724 42.70900635 96.59735199 43.87504395 96.11222839 45.07641602 C95.12725521 47.5153757 94.14224365 49.95431988 93.15719604 52.39324951 C82.86925391 77.86798185 72.63615659 103.36439619 62.4375 128.875 C62.12341438 129.66064205 61.80932877 130.4462841 61.4857254 131.25573349 C57.65564543 140.83655459 53.82705551 150.41797036 50 160 C49.01 159.67 48.02 159.34 47 159 C45.74964965 156.30057705 44.69572838 153.67836776 43.69140625 150.88671875 C43.37318405 150.03194443 43.05496185 149.1771701 42.72709656 148.29649353 C42.03114504 146.42348303 41.34041574 144.54852609 40.6541748 142.67193604 C39.15964087 138.58615802 37.63974744 134.50996323 36.12124634 130.43304443 C35.31529071 128.26867305 34.5106101 126.10382652 33.7071228 123.9385376 C29.71924442 113.20205593 25.61293479 102.51253975 21.48693848 91.82852173 C19.40299616 86.43136204 17.32472145 81.03202078 15.24609375 75.6328125 C14.82578888 74.54130386 14.40548401 73.44979523 13.97244263 72.32521057 C9.2114582 59.95785218 4.46548311 47.58477026 -0.2689209 35.20721436 C-1.20972023 32.74859588 -2.15136179 30.29029951 -3.09387207 27.83233643 C-4.40204246 24.42031943 -5.70727072 21.00719151 -7.01171875 17.59375 C-7.40238022 16.57650848 -7.79304169 15.55926697 -8.19554138 14.51119995 C-8.73042931 13.10863449 -8.73042931 13.10863449 -9.27612305 11.67773438 C-9.7419001 10.46071838 -9.7419001 10.46071838 -10.21708679 9.21911621 C-10.94337581 7.16049756 -11.51160218 5.12617483 -12 3 C-10.75823305 2.29773859 -9.50614401 1.61370891 -8.25 0.9375 C-7.20585937 0.36322266 -7.20585937 0.36322266 -6.140625 -0.22265625 C-3.49647913 -1.18284791 -2.58052421 -1.09402452 0 0 Z " fill="#C8EEFD" transform="translate(139,349)"/>
<path d="M0 0 C2.47685408 3.01539738 3.89659285 5.88781987 5.26171875 9.53515625 C5.85629883 11.11973633 5.85629883 11.11973633 6.46289062 12.73632812 C6.86701172 13.83396484 7.27113281 14.93160156 7.6875 16.0625 C8.10322266 17.16400391 8.51894531 18.26550781 8.94726562 19.40039062 C12 27.60618073 12 27.60618073 12 31 C11.05870239 31.33825806 11.05870239 31.33825806 10.09838867 31.68334961 C-28.18930385 45.52466955 -58.32710388 63.20613033 -76.24633789 101.3059082 C-81.38773898 112.8809202 -84.8842588 126.11923515 -85.28125 138.80078125 C-85.31863281 139.85974609 -85.35601562 140.91871094 -85.39453125 142.00976562 C-85.46546682 144.23109998 -85.53576848 146.45245466 -85.60546875 148.67382812 C-85.64285156 149.72634766 -85.68023437 150.77886719 -85.71875 151.86328125 C-85.74904297 152.82532471 -85.77933594 153.78736816 -85.81054688 154.77856445 C-86 157 -86 157 -87 158 C-89.38983288 158.13808008 -91.74874836 158.21307593 -94.140625 158.23828125 C-94.85982117 158.246353 -95.57901733 158.25442474 -96.32000732 158.26274109 C-97.84661437 158.27659848 -99.37325261 158.28731321 -100.89990234 158.29516602 C-103.22684312 158.3123292 -105.55234455 158.3561904 -107.87890625 158.40039062 C-109.36196871 158.41052182 -110.84504327 158.41903659 -112.328125 158.42578125 C-113.36746185 158.45204338 -113.36746185 158.45204338 -114.42779541 158.47883606 C-119.22988781 158.45745532 -121.63000051 157.39488345 -125 154 C-126.5600905 150.87981901 -126.20516037 147.55241245 -126.23828125 144.125 C-126.246353 143.32707031 -126.25442474 142.52914062 -126.26274109 141.70703125 C-126.27660237 140.00555599 -126.28731534 138.30405268 -126.29516602 136.60253906 C-126.30653178 134.89607347 -126.32672927 133.18963886 -126.35668945 131.48339844 C-126.85625231 103.0055249 -118.0006035 75.57820475 -99 54 C-98.31421875 53.18273437 -97.6284375 52.36546875 -96.921875 51.5234375 C-85.17861831 37.87929393 -70.99829757 28.12830984 -54.453125 21.2890625 C-53.64119186 20.95044189 -52.82925873 20.61182129 -51.99272156 20.26293945 C-41.67193283 15.9908974 -31.24120192 11.99917673 -20.8125 8 C-18.77919176 7.21772107 -16.74598809 6.4351703 -14.71289062 5.65234375 C-9.80978889 3.76510887 -4.90542946 1.88117564 0 0 Z " fill="#F3EAE6" transform="translate(126,352)"/>
<path d="M0 0 C0.00410889 1.18851562 0.00821777 2.37703125 0.01245117 3.6015625 C0.03452993 8.08993564 0.08910734 12.57746731 0.15258789 17.06542969 C0.17552085 18.99308086 0.1901044 20.92085294 0.19555664 22.84863281 C0.23417382 34.26743584 0.96447813 44.30715109 4.93481445 55.078125 C6 58 6 58 6 60 C7.03125 59.9175 8.0625 59.835 9.125 59.75 C14.78629834 60.11524505 17.58337413 62.43022539 21.3125 66.5625 C24.45334173 71.09927139 24.23145979 75.58694994 24.39453125 80.91015625 C24.4633737 82.72333857 24.53306289 84.53648891 24.60351562 86.34960938 C24.71032755 89.1973571 24.81196345 92.04487583 24.89868164 94.89331055 C24.8999554 112.12348901 24.8999554 112.12348901 33.3125 126.4375 C43.93050633 134.42350053 56.71147974 134.35087343 69.42114258 134.31567383 C71.79750765 134.3125199 74.1726166 134.33602053 76.54882812 134.36132812 C84.80002691 134.3944931 92.29939666 133.88971128 100.32568359 131.71240234 C103.87458171 130.76702306 107.35035431 130.3578084 111 130 C111 131.98 111 133.96 111 136 C80.45493362 150.11944517 48.03814292 152.04106239 16.20703125 141.28125 C15.14871094 140.8584375 14.09039062 140.435625 13 140 C12.11908691 139.6704834 11.23817383 139.3409668 10.33056641 139.00146484 C8 137 8 137 7.56797791 135.14080811 C7.42188984 132.64589444 7.43985036 130.1937333 7.50390625 127.6953125 C7.50207581 125.81380196 7.50011874 123.93229154 7.49804688 122.05078125 C7.52531275 119.08592482 7.56255165 116.12141159 7.60522461 113.15673828 C7.63785735 110.29410845 7.63466891 107.4330832 7.62890625 104.5703125 C7.65368546 103.68683136 7.67846466 102.80335022 7.70399475 101.89309692 C7.76308353 97.31366527 7.76308353 97.31366527 5.70567322 93.3921814 C3.91669003 91.86686346 3.91669003 91.86686346 1 90 C-11.29686207 75.90605957 -17.05012599 59.44986394 -17.23828125 40.8203125 C-17.246353 40.04871796 -17.25442474 39.27712341 -17.26274109 38.48214722 C-17.27650849 36.85677286 -17.28726313 35.23137048 -17.29516602 33.60595703 C-17.3066976 31.95547928 -17.32716821 30.30503916 -17.35668945 28.65478516 C-17.39959895 26.25137382 -17.41556312 23.84906042 -17.42578125 21.4453125 C-17.44328934 20.71796906 -17.46079742 19.99062561 -17.47883606 19.24124146 C-17.45597559 13.76535239 -16.02397752 9.58083222 -13 5 C-8.52930511 0.84864046 -6.04105608 -0.13132731 0 0 Z " fill="#FEB19F" transform="translate(332,363)"/>
<path d="M0 0 C0.96333755 -0.00274933 1.92667511 -0.00549866 2.91920471 -0.0083313 C3.97440308 -0.00114075 5.02960144 0.0060498 6.11677551 0.01345825 C7.22912064 0.0131662 8.34146576 0.01287415 9.48751831 0.01257324 C13.17236573 0.01396905 16.85701215 0.02954228 20.54182434 0.04519653 C23.0934437 0.04892576 25.64506449 0.05177316 28.19668579 0.05377197 C34.23150714 0.06063381 40.26624191 0.0764044 46.30102855 0.09647095 C53.17157388 0.11882092 60.04212266 0.12982111 66.91269529 0.13986182 C81.04562216 0.16077041 95.17848491 0.19595202 109.31135559 0.24050903 C109.06785873 1.15976669 109.06785873 1.15976669 108.81944275 2.09759521 C108.25681227 4.47055153 108.18189327 6.57644918 108.17854309 9.01394653 C108.17725403 9.92144653 108.17596497 10.82894653 108.17463684 11.76394653 C108.17850403 12.70496216 108.18237122 13.64597778 108.18635559 14.61550903 C108.1824884 15.54879028 108.17862122 16.48207153 108.17463684 17.44363403 C108.1759259 18.35371216 108.17721497 19.26379028 108.17854309 20.20144653 C108.18023499 21.43580444 108.18023499 21.43580444 108.18196106 22.69509888 C108.32953928 25.59821308 108.81575125 28.37827791 109.31135559 31.24050903 C94.68171294 31.35740001 80.05213225 31.44552522 65.42211723 31.49956989 C58.62885283 31.5253328 51.83587886 31.56044595 45.0428009 31.6177063 C38.48760696 31.67293505 31.93260147 31.70192817 25.37718582 31.71489525 C22.87570063 31.72413665 20.37423202 31.74218287 17.87287521 31.76915932 C14.37007151 31.80543505 10.86851601 31.81045472 7.36555481 31.80813599 C6.33049301 31.82611237 5.29543121 31.84408875 4.22900391 31.86260986 C-0.36334279 31.82969733 -3.65121149 31.785229 -7.31703186 28.83003235 C-11.14274054 24.65280626 -10.90224316 21.37454556 -10.93864441 15.92800903 C-10.95926941 15.16810669 -10.97989441 14.40820435 -11.00114441 13.62527466 C-11.03331117 8.99728216 -10.69830888 5.98852577 -7.68864441 2.24050903 C-4.48119072 0.10220657 -3.68153037 -0.00810018 0 0 Z " fill="#EEECEE" transform="translate(65.68864440917969,98.75949096679688)"/>
<path d="M0 0 C1.48337608 0.00848969 1.48337608 0.00848969 2.99671936 0.01715088 C6.13503768 0.03942485 9.27218682 0.08960502 12.41015625 0.140625 C14.54620739 0.16070158 16.68227655 0.17895032 18.81835938 0.1953125 C24.03685285 0.23925989 29.25467099 0.3060813 34.47265625 0.390625 C34.52199727 3.23198728 34.55774108 6.07247451 34.5859375 8.9140625 C34.60112427 9.70868896 34.61631104 10.50331543 34.63195801 11.32202148 C34.74486915 26.54555866 27.37330708 37.65251836 18.47265625 49.390625 C18.14265625 49.720625 17.81265625 50.050625 17.47265625 50.390625 C17.23783932 52.57355274 17.05902302 54.76265674 16.91015625 56.953125 C16.82636719 58.15066406 16.74257813 59.34820312 16.65625 60.58203125 C16.56537109 61.97228516 16.56537109 61.97228516 16.47265625 63.390625 C10.17396875 63.49226692 3.87549372 63.56219161 -2.42382812 63.61035156 C-4.56551009 63.63043388 -6.70713745 63.65770537 -8.84863281 63.69238281 C-11.9317779 63.74104898 -15.01419637 63.7636279 -18.09765625 63.78125 C-19.05100861 63.80189514 -20.00436096 63.82254028 -20.98660278 63.84381104 C-27.84080458 63.84611072 -31.20751881 62.6158231 -36.171875 57.79296875 C-41.0711985 51.64833225 -41.38299331 46.06230118 -40.52734375 38.390625 C-38.44626202 32.8201433 -34.91064347 28.97460886 -29.52734375 26.390625 C-27.19476096 26.33144742 -24.85973873 26.32445777 -22.52734375 26.390625 C-22.58535156 25.4728125 -22.64335937 24.555 -22.703125 23.609375 C-22.94918996 16.916408 -23.10863917 11.70016228 -19.3046875 6.0390625 C-13.21614615 0.39210766 -7.99542258 -0.17408583 0 0 Z " fill="#FD99A0" transform="translate(426.52734375,402.609375)"/>
<path d="M0 0 C2.73081922 20.01933285 2.73081922 20.01933285 -0.99609375 26.4375 C-3.85569268 28.96854926 -6.76074706 30.98197345 -10 33 C-11.79032424 34.43433814 -13.56156374 35.89283637 -15.3125 37.375 C-16.21871094 38.10589844 -17.12492187 38.83679688 -18.05859375 39.58984375 C-20.77799753 41.81809359 -23.44329855 44.09422997 -26.09838867 46.39794922 C-31.32942585 50.93098762 -36.59917439 55.42009528 -42 59.75 C-43.010625 60.56984375 -44.02125 61.3896875 -45.0625 62.234375 C-48.48467661 64.29132158 -50.0801077 64.68352151 -54 64 C-56.67578125 62.3125 -56.67578125 62.3125 -59.3125 60 C-60.17488281 59.2575 -61.03726563 58.515 -61.92578125 57.75 C-62.38766846 57.31905029 -62.84955566 56.88810059 -63.32543945 56.4440918 C-65.04801537 54.89880291 -65.04801537 54.89880291 -67.33666992 53.44067383 C-71.32931126 50.54412888 -73.66312353 48.52386611 -74.75268555 43.59521484 C-74.95746251 39.60091942 -74.88402764 35.67630069 -74.6875 31.6875 C-74.65945285 30.30411105 -74.63533286 28.92063664 -74.61523438 27.53710938 C-74.35385676 17.53078514 -74.35385676 17.53078514 -72 14 C-68.71963265 12.4859843 -65.69363012 13.29274477 -62.21630859 13.74658203 C-42.260057 16.02842706 -21.41732478 11.65828396 -4.14453125 1.28515625 C-2 0 -2 0 0 0 Z " fill="#FEDFCF" transform="translate(239,325)"/>
<path d="M0 0 C9.57 0 19.14 0 29 0 C29.02255049 11.06535221 29.04091478 22.13068928 29.05181217 33.19605923 C29.05704113 38.33359566 29.06413901 43.47111563 29.07543945 48.60864258 C29.08626787 53.5623141 29.09227674 58.51596974 29.09487724 63.46965218 C29.09673157 65.36397616 29.10035234 67.25829924 29.10573006 69.1526165 C29.11293989 71.79634386 29.11399097 74.44000471 29.11352539 77.08374023 C29.11712067 77.87495773 29.12071594 78.66617523 29.12442017 79.48136902 C29.11405216 84.88594784 29.11405216 84.88594784 28 86 C17.81563243 86.93702326 10.19321367 85.42948072 1.6875 79.8125 C-5.52747447 72.26194532 -7.3094423 64.7256634 -7.21484375 54.51953125 C-6.85630468 48.64600935 -5.69660788 44.61769589 -1.3125 40.4375 C3.02943438 35.52185657 1.32276255 28.09922671 1 22 C0.91732617 20.04304994 0.83671533 18.08601198 0.7578125 16.12890625 C0.538893 10.75021524 0.26719833 5.37736641 0 0 Z " fill="#FECDBF" transform="translate(68,130)"/>
<path d="M0 0 C0 6.27 0 12.54 0 19 C-21.16248082 30.04943689 -41.32245091 36.43708057 -65.4375 33.4375 C-68.95560394 32.74658685 -68.95560394 32.74658685 -72 34 C-73.42267862 36.84535725 -73.21971869 39.36218552 -73.31640625 42.5390625 C-73.35830078 43.84101563 -73.40019531 45.14296875 -73.44335938 46.484375 C-73.48317299 47.86458045 -73.52288522 49.24478883 -73.5625 50.625 C-73.60569407 52.01303415 -73.64930865 53.40105528 -73.69335938 54.7890625 C-73.79972 58.19260256 -73.90174714 61.59621778 -74 65 C-79.47631966 61.00677484 -84.66925391 56.79581684 -89.75 52.3125 C-91.03536732 51.18235169 -92.32179361 50.05340643 -93.609375 48.92578125 C-94.16592773 48.43505127 -94.72248047 47.94432129 -95.29589844 47.4387207 C-96.98134476 45.9018808 -96.98134476 45.9018808 -99.20117188 44.89599609 C-101.77628101 42.18178633 -101.39076851 40.04510231 -101.30072021 36.40901184 C-101.23694183 35.0870002 -101.23694183 35.0870002 -101.171875 33.73828125 C-101.14401917 32.83248825 -101.11616333 31.92669525 -101.08746338 30.99345398 C-100.99405012 28.09878174 -100.87237541 25.20607856 -100.75 22.3125 C-100.68173086 20.35097541 -100.61530172 18.38938585 -100.55078125 16.42773438 C-100.38853359 11.61747539 -100.20093238 6.80879213 -100 2 C-98.49651001 2.81621826 -98.49651001 2.81621826 -96.96264648 3.64892578 C-95.61972299 4.3728959 -94.27670008 5.09668164 -92.93359375 5.8203125 C-92.27629272 6.17778564 -91.6189917 6.53525879 -90.94177246 6.90356445 C-78.49902063 13.59025103 -66.40955927 17.3889005 -52.25 17.3125 C-50.64656738 17.30512817 -50.64656738 17.30512817 -49.01074219 17.29760742 C-41.63307122 17.18778713 -34.95258997 16.62957261 -28 14 C-26.52080078 13.45472656 -26.52080078 13.45472656 -25.01171875 12.8984375 C-18.63893139 10.38819089 -6.08211996 0 0 0 Z " fill="#FECEBF" transform="translate(239,306)"/>
<path d="M0 0 C6.47689219 3.62458832 10.34374027 9.02150819 12.6875 16 C13.59627276 23.06940672 13.03905773 29.21829549 8.6875 35 C2.94719222 41.3117986 -2.78299665 44.41554796 -11.1875 45.5 C-17.21248411 45.22721529 -22.71148942 42.29565085 -27.17578125 38.35546875 C-31.55832232 33.53793601 -34.0630197 28.61954313 -34.6875 22.0625 C-34.28396021 13.68501386 -30.43891819 7.57171232 -24.3125 2 C-16.99166014 -3.50997673 -8.23319586 -3.65231997 0 0 Z " fill="#FDE87E" transform="translate(237.3125,93)"/>
<path d="M0 0 C1.89492187 0.01353516 1.89492187 0.01353516 3.828125 0.02734375 C4.79234375 0.03894531 5.7565625 0.05054688 6.75 0.0625 C5.00398755 5.44671515 2.95866704 10.68220826 0.87109375 15.94140625 C-4.35187216 30.48199776 -2.08140333 48.57359847 4.2578125 62.3359375 C9.72184882 72.4253441 16.84738867 79.47202804 26.87890625 84.96875 C27.49636719 85.3296875 28.11382812 85.690625 28.75 86.0625 C28.75 86.3925 28.75 86.7225 28.75 87.0625 C24.58454875 87.32576588 20.4212488 87.48432084 16.25 87.625 C15.07695312 87.70041016 13.90390625 87.77582031 12.6953125 87.85351562 C4.14620028 88.06964487 4.14620028 88.06964487 0.27050781 85.27392578 C-1.82975909 82.97868297 -3.56213652 80.67361014 -5.25 78.0625 C-5.67667969 77.42320557 -6.10335937 76.78391113 -6.54296875 76.12524414 C-7.62217849 74.38905106 -8.5763289 72.63565971 -9.5 70.8125 C-9.99512085 69.85815063 -9.99512085 69.85815063 -10.50024414 68.88452148 C-20.30787629 49.36377105 -20.29360926 28.47465538 -13.875 7.875 C-13.67817627 7.21443604 -13.48135254 6.55387207 -13.27856445 5.87329102 C-11.77817544 1.34708768 -11.77817544 1.34708768 -9.5390625 0.140625 C-6.35369845 0.0319095 -3.18797129 -0.02951825 0 0 Z " fill="#918291" transform="translate(125.25,11.9375)"/>
<path d="M0 0 C0.76441406 -0.01675781 1.52882813 -0.03351563 2.31640625 -0.05078125 C4.91647923 0.39453512 5.78581388 1.31253502 7.4375 3.3125 C6.93089844 4.25609375 6.93089844 4.25609375 6.4140625 5.21875 C5.96804688 6.0746875 5.52203125 6.930625 5.0625 7.8125 C4.62164062 8.6478125 4.18078125 9.483125 3.7265625 10.34375 C0.29213435 18.2533421 0.1567801 25.62469457 0.1640625 34.1328125 C0.14378549 36.63151499 0.12293495 39.13021289 0.1015625 41.62890625 C0.0789187 45.54382236 0.06246865 49.45855643 0.05664062 53.37353516 C0.04712793 57.16862312 0.01338062 60.96290501 -0.0234375 64.7578125 C-0.01839203 65.92667999 -0.01334656 67.09554749 -0.00814819 68.29983521 C-0.10078199 75.9468005 -0.92090309 79.67090309 -6.375 85.125 C-9.3438404 86.73665622 -12.2362058 86.8914012 -15.5625 87.3125 C-15.58591408 79.65269796 -15.60356043 71.99289974 -15.61431217 64.3330698 C-15.61947858 60.77436093 -15.62645913 57.21567697 -15.63793945 53.65698242 C-15.7741068 10.06789539 -15.7741068 10.06789539 -11.75 4.875 C-8.2426817 1.56603903 -4.82989913 0.02451725 0 0 Z " fill="#FEB09F" transform="translate(385.5625,299.6875)"/>
<path d="M0 0 C5.1777593 -0.09908128 10.35496347 -0.17156806 15.53344727 -0.21972656 C17.29396175 -0.23980786 19.05440982 -0.26707879 20.81469727 -0.30175781 C23.34928802 -0.35043112 25.88299495 -0.37300305 28.41796875 -0.390625 C29.20149216 -0.41127014 29.98501556 -0.43191528 30.7922821 -0.45318604 C34.58067862 -0.45473193 36.7490078 -0.16030862 39.97387695 1.89941406 C43.71577541 5.77883259 43.28555587 9.61102827 43.375 14.75 C43.43107422 15.94882813 43.43107422 15.94882813 43.48828125 17.171875 C43.5511315 21.41775822 43.33607873 24.15223031 40.6015625 27.515625 C37.38943864 30.58305859 36.91609751 30.99436384 32.46826172 31.02172852 C30.95524303 30.97953282 29.44237939 30.93153006 27.9296875 30.87890625 C27.13345978 30.85529526 26.33723206 30.83168427 25.51687622 30.80735779 C22.96940471 30.73067789 20.4222339 30.64667239 17.875 30.5625 C16.14975438 30.50928363 14.42449402 30.4565432 12.69921875 30.40429688 C8.46595478 30.27505693 4.23294618 30.13924581 0 30 C0.38414001 27.0489502 0.38414001 27.0489502 0.76828003 24.09790039 C1.10383809 21.05989123 1.13194265 18.05476767 1.125 15 C1.12886719 13.2984375 1.12886719 13.2984375 1.1328125 11.5625 C1.03377718 8.90602328 0.83347407 6.40293484 0.49169922 3.77734375 C0.32943848 2.53082031 0.16717773 1.28429687 0 0 Z " fill="#EEECEE" transform="translate(279,99)"/>
<path d="M0 0 C-0.48762817 1.85032837 -0.48762817 1.85032837 -0.98510742 3.73803711 C-2.27423074 9.56561298 -2.26087844 15.24559334 -2.23828125 21.19140625 C-2.25369199 23.54102146 -2.26999495 25.89063096 -2.28710938 28.24023438 C-2.3035821 31.90922755 -2.3124706 35.57779888 -2.30541992 39.24682617 C-2.30279642 42.81216273 -2.33093156 46.37623852 -2.36328125 49.94140625 C-2.35307449 51.03119278 -2.34286774 52.12097931 -2.33235168 53.24378967 C-2.4195769 60.06590694 -3.45653561 64.77094827 -8 70 C-11.88693245 73.23911037 -14.03076884 74.20145532 -19 74 C-19.09291116 65.90677425 -19.16387112 57.81377343 -19.20724869 49.72014523 C-19.22807378 45.9614311 -19.256297 42.20308337 -19.30175781 38.44458008 C-19.34539908 34.81355276 -19.36917526 31.1828766 -19.37950897 27.55160713 C-19.3868678 26.17016641 -19.40123787 24.78874369 -19.42292023 23.40745354 C-19.62594126 9.93100465 -19.62594126 9.93100465 -15 4 C-10.13002801 -0.41695134 -6.20899231 -0.40937537 0 0 Z " fill="#FEB1A0" transform="translate(359,313)"/>
<path d="M0 0 C4.37477474 -0.11651725 8.74914827 -0.18736 13.125 -0.25 C14.3625 -0.28351563 15.6 -0.31703125 16.875 -0.3515625 C28.35753625 -0.47503063 28.35753625 -0.47503063 33 4 C33.7734375 4.73347656 34.546875 5.46695312 35.34375 6.22265625 C37.61644795 10.03371342 37.59084473 13.0807381 37.5 17.4375 C37.51546875 18.17548828 37.5309375 18.91347656 37.546875 19.67382812 C37.50980942 24.88617582 36.4043357 27.86660511 33 32 C30.20922081 34.25637467 28.04035522 35.73324225 24.5625 36.625 C16.19542471 34.58424993 10.43459102 24.72662683 6 18 C2.68682323 12.01743911 0.80490623 6.81654962 0 0 Z " fill="#FD99A0" transform="translate(318,423)"/>
<path d="M0 0 C-0.46844092 2.65449853 -1.00876062 5.02166506 -2.02197266 7.52734375 C-3.34035934 12.20850505 -3.2784826 16.59786932 -3.2734375 21.4375 C-3.29371981 23.48698469 -3.31457046 25.53646383 -3.3359375 27.5859375 C-3.35855461 30.79855061 -3.37501989 34.01094366 -3.38085938 37.22363281 C-3.39038908 40.33698693 -3.42416201 43.44936505 -3.4609375 46.5625 C-3.45589203 47.51890381 -3.45084656 48.47530762 -3.44564819 49.46069336 C-3.5296891 55.17062547 -4.20803332 58.45569431 -8 63 C-8.598125 63.763125 -9.19625 64.52625 -9.8125 65.3125 C-12.74888321 67.5777099 -15.37095402 67.5742931 -19 68 C-19.09287747 60.54147558 -19.16385431 53.08307683 -19.20724869 45.62409019 C-19.2280811 42.16015501 -19.25631739 38.69661687 -19.30175781 35.23291016 C-19.35372585 31.24646841 -19.37298133 27.26018475 -19.390625 23.2734375 C-19.41127014 22.03572601 -19.43191528 20.79801453 -19.45318604 19.52279663 C-19.45487249 13.04347581 -19.44322669 8.88672616 -15 4 C-13.948125 2.824375 -13.948125 2.824375 -12.875 1.625 C-8.65694446 -0.75911835 -4.73879295 -0.33125543 0 0 Z " fill="#FEB09E" transform="translate(420,319)"/>
<path d="M0 0 C9.57 0 19.14 0 29 0 C29.11323254 13.70113736 28.68800188 27.31681365 28 41 C27.47253174 40.59370361 26.94506348 40.18740723 26.40161133 39.76879883 C25.6980249 39.23279053 24.99443848 38.69678223 24.26953125 38.14453125 C23.57706299 37.61448486 22.88459473 37.08443848 22.17114258 36.53833008 C14.98709452 31.448182 9.0783776 30.82530705 0 30 C0 20.1 0 10.2 0 0 Z " fill="#A79BA7" transform="translate(279,130)"/>
<path d="M0 0 C1.24153433 3.724603 0.47452539 4.47752269 -1 8 C-2.02061412 12.80398627 -2.13395716 17.50888683 -2.140625 22.3984375 C-2.15894977 24.02865984 -2.17851978 25.65886858 -2.19921875 27.2890625 C-2.22815224 29.83226728 -2.24999992 32.37458871 -2.25048828 34.91796875 C-2.27446119 52.58942626 -2.27446119 52.58942626 -8 59 C-11.77346691 61.46430492 -13.46113291 62 -18 62 C-18.07618093 54.989166 -18.12865495 47.97843911 -18.16479492 40.96728516 C-18.179864 38.58312999 -18.20032291 36.19900247 -18.22631836 33.81494141 C-18.26278337 30.38437063 -18.27974552 26.954167 -18.29296875 23.5234375 C-18.30845261 22.46071625 -18.32393646 21.397995 -18.33988953 20.30307007 C-18.34131904 13.99064909 -17.94924118 9.23341286 -13.5 4.35546875 C-8.79958729 0.69551198 -5.89688052 -0.13104179 0 0 Z " fill="#FEB09E" transform="translate(449,325)"/>
<path d="M0 0 C9.24 0 18.48 0 28 0 C28 9.9 28 19.8 28 30 C21.565 30.495 21.565 30.495 15 31 C11.39501404 32.40837802 11.39501404 32.40837802 7.90234375 34.0625 C5.94547523 35.02687052 4.11665093 35.50332189 2 36 C1.71200672 31.99834864 1.4272981 27.99647784 1.14550781 23.99438477 C1.04938475 22.63559812 0.95239584 21.27687241 0.85449219 19.91821289 C0.71316369 17.95475624 0.57530401 15.99105091 0.4375 14.02734375 C0.35371094 12.84906006 0.26992187 11.67077637 0.18359375 10.45678711 C-0.001298 6.97556065 0 3.4861329 0 0 Z " fill="#A79BA6" transform="translate(68,130)"/>
<path d="M0 0 C2.4453125 1.75 2.4453125 1.75 5.125 4 C6.08792969 4.80695313 7.05085938 5.61390625 8.04296875 6.4453125 C11.68474071 9.59157256 15.26561464 12.79771494 18.80859375 16.0546875 C20.9526996 18.02682324 20.9526996 18.02682324 23.28515625 19.6328125 C23.85105469 20.08398438 24.41695312 20.53515625 25 21 C25 21.66 25 22.32 25 23 C21.23306487 24.67557981 17.46084826 26.33891867 13.6875 28 C12.61564453 28.47695313 11.54378906 28.95390625 10.43945312 29.4453125 C8.89741211 30.12207031 8.89741211 30.12207031 7.32421875 30.8125 C6.37635498 31.23144531 5.42849121 31.65039062 4.4519043 32.08203125 C2 33 2 33 -1 33 C-2.59694874 29.0720611 -4.18147123 25.1394087 -5.75463867 21.2019043 C-6.29160708 19.86297218 -6.83195483 18.52539019 -7.37573242 17.18920898 C-8.15654455 15.2689103 -8.92509562 13.34409239 -9.69140625 11.41796875 C-10.15748291 10.26063232 -10.62355957 9.1032959 -11.10375977 7.91088867 C-12 5 -12 5 -11 2 C-4.12229173 -1.63350626 -4.12229173 -1.63350626 0 0 Z " fill="#9AE6FB" transform="translate(139,349)"/>
</svg>
