<?xml version="1.0" encoding="UTF-8"?>
<svg version="1.1" xmlns="http://www.w3.org/2000/svg" width="512" height="512">
<path d="M0 0 C0.66547852 0.18191895 1.33095703 0.36383789 2.01660156 0.55126953 C17.54894753 4.88128825 35.23087935 13.00484137 47.21875 24.04296875 C51.38636545 26.97551839 55.96762765 28.09538804 60.8125 29.5625 C96.22883079 40.86046366 127.1745003 60.45077958 154 86 C154.898396 86.85537354 154.898396 86.85537354 155.81494141 87.72802734 C164.7086991 96.25914924 172.69261017 105.08041535 180 115 C180.42087891 115.56009766 180.84175781 116.12019531 181.27539062 116.69726562 C212.64642427 158.4771215 229.20405898 209.92489059 229.25 262.0625 C229.25067474 262.75809021 229.25134949 263.45368042 229.25204468 264.17034912 C229.21939768 285.58250575 226.48095119 306.29548289 221 327 C220.77973145 327.84224121 220.55946289 328.68448242 220.33251953 329.55224609 C213.6048145 354.78724716 202.32259688 379.79422839 187 401 C191.75788583 406.80745631 196.97955993 412.00948461 202.36915398 417.23036194 C205.01843714 419.80222975 207.64929478 422.39287405 210.28320312 424.98046875 C213.61959797 428.25678344 216.96130237 431.52702172 220.32446289 434.77587891 C223.0590589 437.41849789 225.77368552 440.08022285 228.47595406 442.75587463 C229.50512345 443.7677865 230.54142536 444.77249802 231.58491325 445.76963806 C233.03963244 447.16157208 234.4676518 448.58124911 235.89428711 450.00195312 C236.71336044 450.80024536 237.53243378 451.5985376 238.37632751 452.42102051 C240 455 240 455 239.89544678 458.62600708 C238.80427925 462.73746475 236.83567929 465.01671145 233.86328125 467.8984375 C233.08769112 468.67908066 233.08769112 468.67908066 232.2964325 469.47549438 C231.20496753 470.56666169 230.10606168 471.65043134 229.00024414 472.72705078 C227.31538162 474.37218633 225.66190054 476.04472592 224.00976562 477.72265625 C222.94185101 478.7830122 221.87224361 479.84166658 220.80078125 480.8984375 C220.30991531 481.39628754 219.81904938 481.89413757 219.31330872 482.40707397 C217.06955927 484.56146962 214.98707383 486.00567319 212.13745117 487.25634766 C207.02680586 486.83877878 204.50067413 483.52742241 201 480 C200.22092285 479.24139679 199.4418457 478.48279358 198.63916016 477.70120239 C196.00871318 475.12504153 193.40847759 472.52103303 190.8125 469.91015625 C189.86008388 468.95587007 188.90744305 468.00180812 187.95458984 467.04795837 C185.47333075 464.5629203 182.99509209 462.07489204 180.51751709 459.58618164 C177.97837515 457.03672504 175.43632354 454.49017312 172.89453125 451.94335938 C167.92687118 446.96504369 162.96240314 441.98355629 158 437 C156.88760598 437.94704772 155.77613139 438.89517545 154.66503906 439.84375 C154.04598694 440.37162109 153.42693481 440.89949219 152.78912354 441.44335938 C150.36691536 443.55082014 148.06812642 445.77904055 145.75 448 C116.58838066 475.08573952 77.62665708 493.75472187 39.0625 502.75 C37.8878418 503.02952515 37.8878418 503.02952515 36.68945312 503.31469727 C19.20645564 507.17500679 1.67667784 508.55696456 -16.1875 508.4375 C-17.16246429 508.43445862 -18.13742859 508.43141724 -19.14193726 508.42828369 C-35.07282497 508.3551533 -50.38254094 507.36649885 -66 504 C-67.50965332 503.68651611 -67.50965332 503.68651611 -69.04980469 503.36669922 C-105.63348203 495.59223102 -139.80349637 479.30422052 -169 456 C-169.5357666 455.57992676 -170.0715332 455.15985352 -170.62353516 454.72705078 C-185.93079888 442.66517735 -200.38793244 428.43753315 -211.81738281 412.63134766 C-213.02130517 410.97061083 -214.2541715 409.33465234 -215.4921875 407.69921875 C-253.76541741 356.46727759 -268.68964209 290.05050558 -259.9765625 227.08203125 C-258.52057193 217.58794784 -256.45706523 208.28166432 -254 199 C-253.77973145 198.15775879 -253.55946289 197.31551758 -253.33251953 196.44775391 C-245.96670969 168.81928052 -233.17449262 141.8766957 -216 119 C-215.5477002 118.39365723 -215.09540039 117.78731445 -214.62939453 117.16259766 C-208.24142974 108.66118481 -201.3685258 100.66771995 -194 93 C-193.43265137 92.40541992 -192.86530273 91.81083984 -192.28076172 91.19824219 C-184.25346211 82.827748 -175.9981015 75.18927105 -166.69189453 68.26416016 C-164.95683175 66.96774528 -163.24088737 65.6489142 -161.52734375 64.32421875 C-153.28469044 58 -153.28469044 58 -151 58 C-150.74476563 57.27425781 -150.48953125 56.54851563 -150.2265625 55.80078125 C-142.87289671 39.00913039 -123.29828759 24.19446263 -108 15 C-107.33419922 14.59700684 -106.66839844 14.19401367 -105.98242188 13.77880859 C-94.62359764 7.0362149 -82.69897 2.54973204 -70 -1 C-69.32130859 -1.19352051 -68.64261719 -1.38704102 -67.94335938 -1.58642578 C-47.02952512 -7.22411488 -20.62457744 -5.91704638 0 0 Z " fill="#C3E1FE" transform="translate(267,4)"/>
<path d="M0 0 C0.66547852 0.18191895 1.33095703 0.36383789 2.01660156 0.55126953 C21.35646105 5.94272513 40.91807913 16.65810521 55 31 C56.34964844 32.28003906 56.34964844 32.28003906 57.7265625 33.5859375 C80.90648667 55.71820399 98.27286733 88.00501445 99.1741333 120.51895142 C99.25522676 125.77970172 99.22549953 131.03971316 99.1953125 136.30078125 C99.19157425 138.23276115 99.18873112 140.16474297 99.18673706 142.09672546 C99.1791645 147.13871659 99.15957209 152.18058928 99.1373291 157.22253418 C99.11673196 162.38466796 99.10770592 167.5468212 99.09765625 172.70898438 C99.07631912 182.80604112 99.04226185 192.90301064 99 203 C94.545 201.515 94.545 201.515 90 200 C89.97421875 198.9378125 89.9484375 197.875625 89.921875 196.78125 C89.68602158 184.46313978 89.68602158 184.46313978 83.27856445 174.36523438 C78.12711928 169.43983101 77.17367311 165.52752636 76.87744141 158.50805664 C76.85601074 157.35039795 76.83458008 156.19273926 76.8125 155 C76.32760086 144.41398344 75.17678324 135.10902026 72 125 C71.72542969 123.9996875 71.45085937 122.999375 71.16796875 121.96875 C63.59304261 96.23475435 44.21662983 72.70862681 20.78271484 59.77636719 C-6.53023923 45.47692984 -37.7879109 39.53256109 -67.95800781 48.35839844 C-83.31114244 53.18241061 -97.89381206 60.31806946 -110 71 C-110.81855469 71.68707031 -111.63710937 72.37414062 -112.48046875 73.08203125 C-133.06863342 90.79742875 -145.99154567 116.22584644 -150 143 C-150.13833375 144.94325195 -150.24313991 146.88914619 -150.31640625 148.8359375 C-150.35830078 149.89941406 -150.40019531 150.96289062 -150.44335938 152.05859375 C-150.48267578 153.15300781 -150.52199219 154.24742187 -150.5625 155.375 C-150.62727539 157.05142578 -150.62727539 157.05142578 -150.69335938 158.76171875 C-150.79897411 161.50770199 -150.9010797 164.25376881 -151 167 C-150.19175781 166.6390625 -149.38351563 166.278125 -148.55078125 165.90625 C-147.48214844 165.4421875 -146.41351563 164.978125 -145.3125 164.5 C-144.25675781 164.0359375 -143.20101562 163.571875 -142.11328125 163.09375 C-139.14372184 162.05049199 -137.10804937 161.76934699 -134 162 C-133.938125 160.824375 -133.87625 159.64875 -133.8125 158.4375 C-132.00699743 142.68263507 -124.11512106 127.94177949 -114 116 C-113.48050781 115.33613281 -112.96101562 114.67226562 -112.42578125 113.98828125 C-98.98895625 97.42812646 -77.81986301 87.67525313 -57 85 C-51.5255068 84.59229131 -46.04646736 84.709225 -40.5625 84.8125 C-39.13738428 84.82760723 -37.71225268 84.84128473 -36.28710938 84.85351562 C-32.85773237 84.88596741 -29.4289754 84.93739816 -26 85 C-29.25510038 86.71047579 -32.06056167 87.46555667 -35.6875 88.125 C-48.80202314 91.06064691 -60.64045439 97.53654427 -71 106 C-71.70253906 106.54011719 -72.40507812 107.08023438 -73.12890625 107.63671875 C-88.17940895 119.80082368 -97.60139524 139.22740986 -101 158 C-101.31071656 161.47437612 -101.2810493 164.51498871 -101 168 C-100.195625 167.195625 -99.39125 166.39125 -98.5625 165.5625 C-94.67840508 162.3638336 -90.97877928 161.58720781 -86 162 C-81.40153244 163.24085633 -78.09521031 165.27854152 -75.5 169.3125 C-73.59956566 173.98440108 -73.11585239 177.21676611 -74.66015625 182.078125 C-76.98406817 187.51064636 -79.54058708 189.77922186 -85 192 C-90.60696512 192.91750338 -93.73742417 191.37217633 -98.30078125 188.38671875 C-100 187 -100 187 -102 184 C-102.04998673 188.64069099 -102.0859928 193.28122019 -102.10986328 197.92211914 C-102.11982989 199.49604019 -102.1334081 201.06994318 -102.15087891 202.64379883 C-102.24821231 211.64713878 -102.1589565 220.19647914 -100 229 C-99.82823242 229.72823975 -99.65646484 230.45647949 -99.47949219 231.20678711 C-95.77527359 246.05308753 -89.65967979 259.0205472 -80 271 C-79.32324219 271.84175781 -78.64648438 272.68351562 -77.94921875 273.55078125 C-71.51926851 281.10920538 -63.56897386 288.21551307 -54.6484375 292.67578125 C-51.6678745 295.29146707 -51.58481293 295.7112925 -51.30078125 299.45703125 C-51.27998793 301.24207067 -51.28530914 303.02754657 -51.3125 304.8125 C-51.2805171 306.71890905 -51.24010879 308.6251948 -51.19140625 310.53125 C-51.16836426 311.46582031 -51.14532227 312.40039062 -51.12158203 313.36328125 C-50.84326307 319.39911416 -49.50937128 325.15911365 -48 331 C-47.84047852 331.63180176 -47.68095703 332.26360352 -47.51660156 332.91455078 C-40.46365017 360.1448996 -22.92185391 383.41940381 1.12841797 397.90234375 C18.43556364 408.0527386 36.59733335 413.41690324 56.6875 413.3125 C57.82944824 413.30686035 58.97139648 413.3012207 60.14794922 413.29541016 C75.6634865 413.07360276 89.84679129 409.76227 103.87841797 403.109375 C107.42263792 401.45081953 109.30270246 400.66650279 113 402 C119.25227233 405.74285348 125.53898925 411.60482952 127.86688232 418.60784912 C129.04129682 424.56383646 129.12634525 430.47953452 128.98999023 436.5324707 C128.93722684 439.70391896 129.05080648 442.84098736 129.17773438 446.00976562 C129.34884646 460.08959757 129.34884646 460.08959757 125.40045166 464.98196411 C121.4006136 468.48402593 116.89712628 470.83620609 112.08401489 473.03500366 C109.39903594 474.27827446 106.92212171 475.79468188 104.40625 477.34765625 C71.77101159 495.70233602 33.92122143 507.9030721 -3.7734375 508.23828125 C-4.68665268 508.2480751 -5.59986786 508.25786896 -6.54075623 508.26795959 C-26.70462888 508.43961566 -46.20191781 508.26767381 -66 504 C-67.50965332 503.68651611 -67.50965332 503.68651611 -69.04980469 503.36669922 C-105.63348203 495.59223102 -139.80349637 479.30422052 -169 456 C-169.5357666 455.57992676 -170.0715332 455.15985352 -170.62353516 454.72705078 C-185.93079888 442.66517735 -200.38793244 428.43753315 -211.81738281 412.63134766 C-213.02130517 410.97061083 -214.2541715 409.33465234 -215.4921875 407.69921875 C-253.76541741 356.46727759 -268.68964209 290.05050558 -259.9765625 227.08203125 C-258.52057193 217.58794784 -256.45706523 208.28166432 -254 199 C-253.77973145 198.15775879 -253.55946289 197.31551758 -253.33251953 196.44775391 C-245.96670969 168.81928052 -233.17449262 141.8766957 -216 119 C-215.5477002 118.39365723 -215.09540039 117.78731445 -214.62939453 117.16259766 C-208.24142974 108.66118481 -201.3685258 100.66771995 -194 93 C-193.43265137 92.40541992 -192.86530273 91.81083984 -192.28076172 91.19824219 C-184.25346211 82.827748 -175.9981015 75.18927105 -166.69189453 68.26416016 C-164.95683175 66.96774528 -163.24088737 65.6489142 -161.52734375 64.32421875 C-153.28469044 58 -153.28469044 58 -151 58 C-150.74476563 57.27425781 -150.48953125 56.54851563 -150.2265625 55.80078125 C-142.87289671 39.00913039 -123.29828759 24.19446263 -108 15 C-107.33419922 14.59700684 -106.66839844 14.19401367 -105.98242188 13.77880859 C-94.62359764 7.0362149 -82.69897 2.54973204 -70 -1 C-69.32130859 -1.19352051 -68.64261719 -1.38704102 -67.94335938 -1.58642578 C-47.02952512 -7.22411488 -20.62457744 -5.91704638 0 0 Z " fill="#FC8087" transform="translate(267,4)"/>
<path d="M0 0 C0.66209473 0.21430664 1.32418945 0.42861328 2.00634766 0.64941406 C33.264996 10.90720791 56.51019862 31.3962373 71.8918457 60.40332031 C75.69755658 67.95203384 78.01867778 75.80900893 80 84 C80.18038818 84.66765381 80.36077637 85.33530762 80.54663086 86.02319336 C82.54843985 93.92621564 82.58086356 102.0217716 82.77148438 110.13867188 C83.1961573 118.47812806 84.97897694 122.341535 91 128 C96.42263698 135.20691499 95.37538915 143.40775942 95 152 C93.28683594 151.566875 93.28683594 151.566875 91.5390625 151.125 C71.49828382 146.40161245 50.77842194 145.82072286 31 152 C30.3179248 152.20898926 29.63584961 152.41797852 28.93310547 152.63330078 C2.46589783 161.00027265 -20.32939041 179.99839112 -33.44921875 204.44921875 C-38.9619379 215.24969401 -42.39724099 226.19007852 -45 238 C-45.18836426 238.84272461 -45.37672852 239.68544922 -45.57080078 240.55371094 C-46.05016502 242.70183308 -46.52647001 244.8505856 -47 247 C-70.12734138 234.62713339 -86.21243303 213.98102324 -93.80859375 189.09375 C-94.20643185 187.72937137 -94.60360619 186.36479894 -95 185 C-95.54333984 183.25203125 -95.54333984 183.25203125 -96.09765625 181.46875 C-97.82049632 174.84588426 -98.14611637 168.36299093 -98.09765625 161.5625 C-98.0962413 160.79695801 -98.09482635 160.03141602 -98.09336853 159.24267578 C-98.08782853 156.82840858 -98.07528779 154.41423856 -98.0625 152 C-98.05747723 150.35026177 -98.05291569 148.70052206 -98.04882812 147.05078125 C-98.03787886 143.03381745 -98.02065666 139.01692513 -98 135 C-97.54109375 135.40992188 -97.0821875 135.81984375 -96.609375 136.2421875 C-95.99578125 136.78101563 -95.3821875 137.31984375 -94.75 137.875 C-94.14671875 138.40867188 -93.5434375 138.94234375 -92.921875 139.4921875 C-88.64405295 142.84836496 -85.46384421 143.47928458 -80 143 C-77.23558031 141.59240659 -77.23558031 141.59240659 -75 140 C-74.34 140 -73.68 140 -73 140 C-70.86517941 134.73410921 -69.60253905 130.76318377 -70 125 C-71.40759341 122.23558031 -71.40759341 122.23558031 -73 120 C-73 119.34 -73 118.68 -73 118 C-77.45956667 115.84214516 -82.04857457 114.77108136 -87 115 C-89.71983045 116.01993642 -91.58039422 117.30627595 -94 119 C-94.99 119.66 -95.98 120.32 -97 121 C-98.73503111 103.49546394 -90.79585629 85.67161014 -80.375 72 C-79.25940923 70.65878413 -78.13510529 69.32474102 -77 68 C-76.29810547 67.10087891 -76.29810547 67.10087891 -75.58203125 66.18359375 C-65.06949948 53.02084388 -47.53351656 43.04988413 -31.22265625 39.39453125 C-30.05613525 39.1313208 -28.88961426 38.86811035 -27.68774414 38.59692383 C-26.80078857 38.39993896 -25.91383301 38.2029541 -25 38 C-52.27379003 37.4204654 -75.00459956 39.75224064 -97 57 C-97.81984375 57.63679688 -98.6396875 58.27359375 -99.484375 58.9296875 C-116.11544107 72.75067689 -125.14689283 93.15266225 -129 114 C-131.0829243 114.64715133 -133.16635539 115.29267166 -135.25 115.9375 C-136.99023438 116.47697266 -136.99023438 116.47697266 -138.765625 117.02734375 C-141.17271502 117.75121502 -143.56074155 118.40409751 -146 119 C-147.00270607 88.71056357 -140.54045864 60.27918646 -120 37 C-119.31292969 36.18144531 -118.62585938 35.36289063 -117.91796875 34.51953125 C-89.90736048 1.96666218 -41.37999768 -13.80762617 0 0 Z " fill="#FDD1A3" transform="translate(262,52)"/>
<path d="M0 0 C0.66547852 0.18191895 1.33095703 0.36383789 2.01660156 0.55126953 C21.35646105 5.94272513 40.91807913 16.65810521 55 31 C55.89976562 31.85335937 56.79953125 32.70671875 57.7265625 33.5859375 C80.90648667 55.71820399 98.27286733 88.00501445 99.1741333 120.51895142 C99.25522676 125.77970172 99.22549953 131.03971316 99.1953125 136.30078125 C99.19157425 138.23276115 99.18873112 140.16474297 99.18673706 142.09672546 C99.1791645 147.13871659 99.15957209 152.18058928 99.1373291 157.22253418 C99.11673196 162.38466796 99.10770592 167.5468212 99.09765625 172.70898438 C99.07631912 182.80604112 99.04226185 192.90301064 99 203 C94.545 201.515 94.545 201.515 90 200 C89.97421875 198.9378125 89.9484375 197.875625 89.921875 196.78125 C89.68602158 184.46313978 89.68602158 184.46313978 83.27856445 174.36523438 C78.12711928 169.43983101 77.17367311 165.52752636 76.87744141 158.50805664 C76.85601074 157.35039795 76.83458008 156.19273926 76.8125 155 C76.32760086 144.41398344 75.17678324 135.10902026 72 125 C71.58814453 123.49953125 71.58814453 123.49953125 71.16796875 121.96875 C63.59304261 96.23475435 44.21662983 72.70862681 20.78271484 59.77636719 C-6.53023923 45.47692984 -37.7879109 39.53256109 -67.95800781 48.35839844 C-83.31114244 53.18241061 -97.89381206 60.31806946 -110 71 C-110.81855469 71.68707031 -111.63710937 72.37414062 -112.48046875 73.08203125 C-135.5932573 92.96977954 -148.37836389 121.86625159 -151 152 C-151.03142154 153.46854374 -151.05058296 154.93739199 -151.05859375 156.40625 C-151.19551522 169.10122143 -151.19551522 169.10122143 -155.875 174.0625 C-156.57367188 174.65160156 -157.27234375 175.24070313 -157.9921875 175.84765625 C-164.00946543 182.29808454 -163.48939867 190.6478671 -163.4375 198.9375 C-163.45748047 200.06607422 -163.47746094 201.19464844 -163.49804688 202.35742188 C-163.49213114 212.5265734 -160.9614128 219.77382579 -153.96875 227.2109375 C-148.59850475 232.09104131 -144.16623138 234.01574965 -136.9375 234.125 C-133.859375 234.51171875 -133.859375 234.51171875 -131 236 C-127.5911871 240.99543516 -125.89714824 247.04026045 -123.88378906 252.69482422 C-115.89161084 273.54072112 -96.23740662 288.38129669 -77 298 C-77 306.25 -77 314.5 -77 323 C-79.19342041 323.0093457 -81.38684082 323.01869141 -83.64672852 323.02832031 C-90.9510431 323.06231731 -98.25508188 323.11798957 -105.55917454 323.18390274 C-109.98111363 323.22315835 -114.40286011 323.2554529 -118.82495117 323.27099609 C-123.10462063 323.28630889 -127.38375974 323.32100703 -131.66319084 323.36830902 C-133.28353157 323.38297393 -134.90394807 323.3910323 -136.52435493 323.39188385 C-149.67475996 323.40572531 -160.50844162 325.82756674 -173 330 C-173.07024223 302.79990888 -173.12306251 275.59983146 -173.15543652 248.39966774 C-173.17087132 235.76869287 -173.19189578 223.13777452 -173.22631836 210.50683594 C-173.25632472 199.49107237 -173.27559958 188.47534976 -173.28226548 177.45954645 C-173.28615877 171.63280626 -173.29523722 165.8061832 -173.31719017 159.97948074 C-173.33773323 154.481825 -173.3437982 148.98433332 -173.33932304 143.48664284 C-173.34014035 141.48172294 -173.34599881 139.47679688 -173.35761642 137.47191048 C-173.54558551 103.32412414 -163.6862901 67.61424394 -140 42 C-139.43925781 41.3915625 -138.87851563 40.783125 -138.30078125 40.15625 C-129.10088606 30.28131009 -119.57658798 21.9576745 -108 15 C-107.33419922 14.59700684 -106.66839844 14.19401367 -105.98242188 13.77880859 C-94.62359764 7.0362149 -82.69897 2.54973204 -70 -1 C-69.32130859 -1.19352051 -68.64261719 -1.38704102 -67.94335938 -1.58642578 C-47.02952512 -7.22411488 -20.62457744 -5.91704638 0 0 Z " fill="#6D3326" transform="translate(267,4)"/>
<path d="M0 0 C0.80824219 0.66644531 1.61648438 1.33289063 2.44921875 2.01953125 C3.22652344 2.63441406 4.00382813 3.24929687 4.8046875 3.8828125 C21.37487492 17.65802855 31.04293521 37.86239677 33.44921875 59.01953125 C34.67620502 83.34970384 29.2993584 105.04845702 13.44921875 124.01953125 C12.9284375 124.68597656 12.40765625 125.35242188 11.87109375 126.0390625 C-0.96934974 141.84028787 -20.93347366 150.46655989 -40.55078125 154.01953125 C-66.35325007 156.11276912 -88.59971537 149.83503323 -108.55078125 133.01953125 C-119.58787256 123.4291279 -127.18825042 111.58482662 -132.55078125 98.01953125 C-132.99357422 96.93671875 -132.99357422 96.93671875 -133.4453125 95.83203125 C-140.78655821 76.1589393 -139.10098358 53.41005192 -130.86572266 34.38891602 C-121.12741516 13.19279958 -104.04949319 -3.86338624 -82.09130859 -12.13232422 C-54.54442397 -21.84761574 -23.30054084 -18.21551997 0 0 Z " fill="#FDD1A4" transform="translate(376.55078125,239.98046875)"/>
<path d="M0 0 C1.14194824 0.00563965 2.28389648 0.0112793 3.46044922 0.01708984 C24.06399177 0.31163447 41.32929433 6.81511951 59.3125 16.3125 C59.3125 17.3025 59.3125 18.2925 59.3125 19.3125 C57.3325 20.3025 55.3525 21.2925 53.3125 22.3125 C53.3125 23.3025 53.3125 24.2925 53.3125 25.3125 C55.30689684 26.80723054 55.30689684 26.80723054 57.875 28.125 C66.67919865 33.22151499 70.97417268 37.75617977 75.734375 46.8984375 C76.25515625 47.69507813 76.7759375 48.49171875 77.3125 49.3125 C78.3025 49.3125 79.2925 49.3125 80.3125 49.3125 C81.70977317 47.53921235 81.70977317 47.53921235 82.875 45.3125 C84.12890625 43.0625 84.12890625 43.0625 85.3125 41.3125 C85.9725 41.3125 86.6325 41.3125 87.3125 41.3125 C106.38068249 65.34266306 113.43112105 95.71143594 110.01220703 125.97021484 C108.47849068 135.63946607 105.31194133 144.79792063 101.6796875 153.859375 C100.44292045 156.9830952 99.34220104 160.11552343 98.3125 163.3125 C98.85253662 163.83158936 99.39257324 164.35067871 99.94897461 164.88549805 C102.39312336 167.24642828 104.82158067 169.62289821 107.25 172 C108.10013672 172.81662109 108.95027344 173.63324219 109.82617188 174.47460938 C110.63505859 175.27060547 111.44394531 176.06660156 112.27734375 176.88671875 C113.0262085 177.61463623 113.77507324 178.34255371 114.54663086 179.0925293 C116.52924329 181.58497985 117.10168661 183.15225418 117.3125 186.3125 C115.875 188.625 115.875 188.625 114.3125 190.3125 C115.92974151 194.39457345 118.85634801 197.11648063 121.9375 200.125 C122.43378906 200.62064453 122.93007813 201.11628906 123.44140625 201.62695312 C126.15177427 204.3062864 128.93096011 206.86371484 131.82739258 209.34057617 C140.02368355 216.49261745 147.67314732 224.26223284 155.40548038 231.90885162 C158.17460377 234.64724977 160.95120091 237.37701894 163.74682617 240.08837891 C166.47106806 242.73077921 169.17526138 245.39221222 171.8663311 248.06837463 C172.89017722 249.07998508 173.92089136 250.08469431 174.95854378 251.08213806 C176.40370626 252.47395071 177.82181893 253.89368577 179.23852539 255.31445312 C180.45808678 256.51189148 180.45808678 256.51189148 181.70228577 257.73352051 C183.3125 260.3125 183.3125 260.3125 183.20596313 263.93850708 C182.11693636 268.05100873 180.14834413 270.32905163 177.17578125 273.2109375 C176.40019112 273.99158066 176.40019112 273.99158066 175.6089325 274.78799438 C174.51746753 275.87916169 173.41856168 276.96293134 172.31274414 278.03955078 C170.62788162 279.68468633 168.97440054 281.35722592 167.32226562 283.03515625 C166.25435101 284.0955122 165.18474361 285.15416658 164.11328125 286.2109375 C163.62241531 286.70878754 163.13154938 287.20663757 162.62580872 287.71957397 C160.38205927 289.87396962 158.29957383 291.31817319 155.44995117 292.56884766 C150.33930586 292.15127878 147.81317413 288.83992241 144.3125 285.3125 C143.14388428 284.17459518 143.14388428 284.17459518 141.95166016 283.01370239 C139.32121318 280.43754153 136.72097759 277.83353303 134.125 275.22265625 C133.17258388 274.26837007 132.21994305 273.31430812 131.26708984 272.36045837 C128.78583075 269.8754203 126.30759209 267.38739204 123.83001709 264.89868164 C121.29087515 262.34922504 118.74882354 259.80267312 116.20703125 257.25585938 C111.23937118 252.27754369 106.27490314 247.29605629 101.3125 242.3125 C100.20605513 243.25525911 99.10041957 244.19896809 97.99511719 245.14306641 C97.379328 245.6684903 96.76353882 246.19391418 96.12908936 246.73526001 C93.54059984 248.98269648 91.05754246 251.33719757 88.5625 253.6875 C73.90760823 267.3125 73.90760823 267.3125 70.3125 267.3125 C70.33106049 266.76729706 70.34962097 266.22209412 70.3687439 265.66036987 C70.5500769 259.91571928 70.6298658 254.17563346 70.65429688 248.42822266 C70.67617968 246.2923965 70.72279948 244.1566597 70.79589844 242.02197266 C71.38743952 227.19901986 71.38743952 227.19901986 64.45181274 214.62625122 C60.25091074 210.48118988 60.25091074 210.48118988 55.3125 207.3125 C52.59029001 207.229937 52.59029001 207.229937 50.3125 208.3125 C49.18457031 208.74304688 48.05664062 209.17359375 46.89453125 209.6171875 C45.63692588 210.13798877 44.38045572 210.66153785 43.125 211.1875 C19.67832111 220.74458564 -6.30860781 222.92907992 -30.6875 215.3125 C-31.71061279 214.99901611 -31.71061279 214.99901611 -32.75439453 214.67919922 C-59.51572331 206.21924802 -83.14264956 186.58868107 -96.16796875 161.69140625 C-100.77497482 152.49407274 -104.4338603 143.37294686 -106.6875 133.3125 C-106.91050781 132.4153125 -107.13351563 131.518125 -107.36328125 130.59375 C-113.20358063 102.94172029 -106.31541785 74.03187277 -91.6875 50.3125 C-74.18763453 24.65015311 -49.08709493 7.39933353 -18.4921875 1.1953125 C-12.32067154 0.12507368 -6.25279362 -0.0324941 0 0 Z M-60.6875 50.3125 C-61.38617188 50.99828125 -62.08484375 51.6840625 -62.8046875 52.390625 C-68.72481676 58.61021605 -72.72618669 65.77008872 -76.6875 73.3125 C-77.1 74.07175781 -77.5125 74.83101562 -77.9375 75.61328125 C-86.60583539 93.05153408 -87.41363064 115.99906149 -81.4296875 134.3515625 C-77.12092148 146.69783436 -71.36097544 157.45043718 -62.6875 167.3125 C-62.03265625 168.06273437 -61.3778125 168.81296875 -60.703125 169.5859375 C-50.49936203 180.51854068 -37.76946524 187.66453108 -23.6875 192.3125 C-22.19089844 192.82103516 -22.19089844 192.82103516 -20.6640625 193.33984375 C0.42428876 199.34531911 23.14768983 195.09830519 42.3125 185.3125 C63.88175118 172.80973553 77.59993788 154.05172293 84.62109375 130.375 C89.86607108 107.14301001 85.61805865 83.63859273 73.38671875 63.39453125 C60.10274449 43.65619661 40.87807974 30.33810813 17.55078125 25.203125 C-11.76319036 19.62082602 -39.68900631 29.66991298 -60.6875 50.3125 Z " fill="#61B7FE" transform="translate(323.6875,198.6875)"/>
<path d="M0 0 C0.495 0.99 0.495 0.99 1 2 C-0.29005565 4.57707587 -1.63985836 7.05993522 -3.0625 9.5625 C-13.11989547 27.94601983 -19.2338825 48.93126892 -19.09765625 69.96327209 C-19.09624413 70.83088163 -19.09483202 71.69849117 -19.09337711 72.59239191 C-19.08769015 75.48097834 -19.07499603 78.36949231 -19.0625 81.25805664 C-19.05734326 83.33652112 -19.05275486 85.41498708 -19.0486908 87.49345398 C-19.03964683 91.96011625 -19.02834979 96.42676544 -19.01583862 100.89341927 C-18.99785735 107.95723229 -18.99591936 115.02099125 -18.99829102 122.08482361 C-18.99884475 123.87471989 -18.99884475 123.87471989 -18.99940968 125.70077568 C-19.00117369 130.61949338 -19.00338408 135.53821084 -19.00555611 140.45692837 C-19.01081537 154.41649942 -19.00099424 168.37572094 -18.94873047 182.33520508 C-18.90728741 193.4341991 -18.89748655 204.53271183 -18.92484093 215.63175672 C-18.93809321 221.5024993 -18.9351805 227.3722434 -18.89379883 233.24287605 C-18.85522344 238.76161567 -18.8585147 244.2787416 -18.89392281 249.79748726 C-18.89946783 251.82155654 -18.8896336 253.84573564 -18.86323357 255.86964035 C-18.67599494 271.19311683 -18.67599494 271.19311683 -21.98245239 275.70547295 C-24.25538383 277.49155843 -26.40761386 278.74479471 -29 280 C-39.38294187 289.41708682 -46.17293753 301.80242351 -47.21337891 315.88893127 C-47.32493678 319.15714755 -47.3807755 322.42145916 -47.4140625 325.69140625 C-47.43342865 326.87725815 -47.4527948 328.06311005 -47.4727478 329.28489685 C-47.53216194 333.04402648 -47.57877598 336.80318737 -47.625 340.5625 C-47.66321489 343.12305967 -47.70226863 345.68360696 -47.7421875 348.24414062 C-47.83783191 354.4959833 -47.92298942 360.7479015 -48 367 C-88.36244999 327.28307741 -108.66806102 264.84851087 -109.24145508 209.24389648 C-109.29291379 185.94486003 -106.97439768 163.5685314 -101 141 C-100.77973145 140.15775879 -100.55946289 139.31551758 -100.33251953 138.44775391 C-92.96670969 110.81928052 -80.17449262 83.8766957 -63 61 C-62.5477002 60.39365723 -62.09540039 59.78731445 -61.62939453 59.16259766 C-55.24142974 50.66118481 -48.3685258 42.66771995 -41 35 C-40.43265137 34.40541992 -39.86530273 33.81083984 -39.28076172 33.19824219 C-30.74374052 24.29623406 -21.89357423 16.3541383 -12 9 C-10.81834058 8.10896053 -9.6373485 7.21703536 -8.45703125 6.32421875 C-5.64752309 4.20327203 -2.82731133 2.09718148 0 0 Z " fill="#C4E2FE" transform="translate(114,62)"/>
<path d="M0 0 C1.42511572 0.01510723 2.85024732 0.02878473 4.27539062 0.04101562 C7.70476763 0.07346741 11.1335246 0.12489816 14.5625 0.1875 C11.30739962 1.89797579 8.50193833 2.65305667 4.875 3.3125 C-8.23952314 6.24814691 -20.07795439 12.72404427 -30.4375 21.1875 C-31.14003906 21.72761719 -31.84257812 22.26773438 -32.56640625 22.82421875 C-47.61690895 34.98832368 -57.03889524 54.41490986 -60.4375 73.1875 C-60.74821656 76.66187612 -60.7185493 79.70248871 -60.4375 83.1875 C-59.633125 82.383125 -58.82875 81.57875 -58 80.75 C-54.11590508 77.5513336 -50.41627928 76.77470781 -45.4375 77.1875 C-40.83903244 78.42835633 -37.53271031 80.46604152 -34.9375 84.5 C-33.03706566 89.17190108 -32.55335239 92.40426611 -34.09765625 97.265625 C-36.42156817 102.69814636 -38.97808708 104.96672186 -44.4375 107.1875 C-50.04446512 108.10500338 -53.17492417 106.55967633 -57.73828125 103.57421875 C-59.4375 102.1875 -59.4375 102.1875 -61.4375 99.1875 C-61.48748673 103.82819099 -61.5234928 108.46872019 -61.54736328 113.10961914 C-61.55732989 114.68354019 -61.5709081 116.25744318 -61.58837891 117.83129883 C-61.68571231 126.83463878 -61.5964565 135.38397914 -59.4375 144.1875 C-59.17984863 145.27985962 -59.17984863 145.27985962 -58.91699219 146.39428711 C-55.21277359 161.24058753 -49.09717979 174.2080472 -39.4375 186.1875 C-38.76074219 187.02925781 -38.08398438 187.87101563 -37.38671875 188.73828125 C-30.95676851 196.29670538 -23.00647386 203.40301307 -14.0859375 207.86328125 C-11.1053745 210.47896707 -11.02231293 210.8987925 -10.73828125 214.64453125 C-10.71748793 216.42957067 -10.72280914 218.21504657 -10.75 220 C-10.7180171 221.90640905 -10.67760879 223.8126948 -10.62890625 225.71875 C-10.60586426 226.65332031 -10.58282227 227.58789062 -10.55908203 228.55078125 C-10.28076307 234.58661416 -8.94687128 240.34661365 -7.4375 246.1875 C-7.27797852 246.81930176 -7.11845703 247.45110352 -6.95410156 248.10205078 C-2.61116023 264.86947205 5.58059055 278.91058011 16.5625 292.1875 C17.89759608 293.85275494 19.23119362 295.51921379 20.5625 297.1875 C19.07411293 301.03057991 17.58058072 304.87161795 16.08251953 308.7109375 C15.57496116 310.01378868 15.06874399 311.31716327 14.56396484 312.62109375 C11.84801257 319.63416654 9.09013902 326.5353807 5.5625 333.1875 C3.71617126 332.99064636 3.71617126 332.99064636 1.5625 332.1875 C0.24195862 330.08418274 0.24195862 330.08418274 -0.89624023 327.3371582 C-1.52996048 325.83664413 -1.52996048 325.83664413 -2.17648315 324.30581665 C-2.80068649 322.76224991 -2.80068649 322.76224991 -3.4375 321.1875 C-3.8216507 320.26617279 -4.20580139 319.34484558 -4.60159302 318.39559937 C-5.78626339 315.53553768 -6.94459746 312.66591246 -8.09765625 309.79296875 C-8.52483948 308.73518723 -8.95202271 307.6774057 -9.39215088 306.58757019 C-11.7153991 300.83011885 -14.02381381 295.06680982 -16.3269043 289.30126953 C-17.26441697 286.95719906 -18.20232079 284.61328499 -19.140625 282.26953125 C-19.59951614 281.12295044 -20.05840729 279.97636963 -20.53120422 278.79504395 C-23.0713008 272.48042147 -25.69673062 266.2207457 -28.484375 260.01171875 C-35.58693077 244.01785834 -38.18426736 230.71339915 -36.4375 213.1875 C-37.29085937 212.93871094 -38.14421875 212.68992187 -39.0234375 212.43359375 C-59.29942444 205.03309051 -75.74090117 185.82322326 -84.92480469 166.90356445 C-87.28463405 161.8146338 -89.173879 156.663191 -90.4375 151.1875 C-91.406875 151.249375 -92.37625 151.31125 -93.375 151.375 C-101.49150732 151.35856982 -108.72243544 147.78869285 -114.4765625 142.2109375 C-122.76721045 133.43792458 -123.94864619 126.01330448 -123.875 114.25 C-123.89498047 113.12142578 -123.91496094 111.99285156 -123.93554688 110.83007812 C-123.93096807 102.95911907 -123.08317833 96.11245389 -117.55078125 90.15625 C-116.95652344 89.6715625 -116.36226563 89.186875 -115.75 88.6875 C-110.29716908 83.00164212 -111.37867172 74.58305553 -111.4375 67.1875 C-111.1075 67.1875 -110.7775 67.1875 -110.4375 67.1875 C-110.4375 72.1375 -110.4375 77.0875 -110.4375 82.1875 C-108.560625 81.3625 -106.68375 80.5375 -104.75 79.6875 C-100.76936542 77.93777051 -97.80471818 76.86340218 -93.4375 77.1875 C-93.3446875 75.4240625 -93.3446875 75.4240625 -93.25 73.625 C-91.44449743 57.87013507 -83.55262106 43.12927949 -73.4375 31.1875 C-72.91800781 30.52363281 -72.39851563 29.85976562 -71.86328125 29.17578125 C-54.18748191 7.39132153 -26.92359004 -0.50702959 0 0 Z " fill="#FEBD86" transform="translate(226.4375,88.8125)"/>
<path d="M0 0 C0.93054199 0.21124512 0.93054199 0.21124512 1.87988281 0.42675781 C24.71137764 5.7331928 46.46876602 16.155872 63 33 C63.89976562 33.85335937 64.79953125 34.70671875 65.7265625 35.5859375 C88.90648667 57.71820399 106.27286733 90.00501445 107.1741333 122.51895142 C107.25522676 127.77970172 107.22549953 133.03971316 107.1953125 138.30078125 C107.19157425 140.23276115 107.18873112 142.16474297 107.18673706 144.09672546 C107.1791645 149.13871659 107.15957209 154.18058928 107.1373291 159.22253418 C107.11673196 164.38466796 107.10770592 169.5468212 107.09765625 174.70898438 C107.07631912 184.80604112 107.04226185 194.90301064 107 205 C104.03 204.01 101.06 203.02 98 202 C97.96132813 200.40671875 97.96132813 200.40671875 97.921875 198.78125 C97.68602158 186.46313978 97.68602158 186.46313978 91.27856445 176.36523438 C86.12711928 171.43983101 85.17367311 167.52752636 84.87744141 160.50805664 C84.85601074 159.35039795 84.83458008 158.19273926 84.8125 157 C84.32760086 146.41398344 83.17678324 137.10902026 80 127 C79.58814453 125.49953125 79.58814453 125.49953125 79.16796875 123.96875 C71.59304261 98.23475435 52.21662983 74.70862681 28.78271484 61.77636719 C1.46976077 47.47692984 -29.7879109 41.53256109 -59.95800781 50.35839844 C-75.31731059 55.18434867 -89.88038302 62.32369993 -102 73 C-102.78761719 73.67933594 -103.57523438 74.35867187 -104.38671875 75.05859375 C-106.27031913 76.69236232 -108.14102028 78.33834215 -110 80 C-110.33 79.34 -110.66 78.68 -111 78 C-103.97841472 60.0531322 -90.06571148 41.89115085 -75 30 C-74.0925 29.24460937 -73.185 28.48921875 -72.25 27.7109375 C-54.89564663 13.53139849 -23.42093904 -5.57641406 0 0 Z " fill="#883F2E" transform="translate(259,2)"/>
<path d="M0 0 C0.66209473 0.21430664 1.32418945 0.42861328 2.00634766 0.64941406 C33.264996 10.90720791 56.51019862 31.3962373 71.8918457 60.40332031 C75.69884037 67.95458028 78.00979862 75.80932623 80 84 C80.18691406 84.66765381 80.37382812 85.33530762 80.56640625 86.02319336 C82.34502084 92.8503491 82.22597516 99.54472645 82.125 106.5625 C82.11597656 107.76197266 82.10695313 108.96144531 82.09765625 110.19726562 C82.07427412 113.13172309 82.0415028 116.06575234 82 119 C80.66195312 118.58427734 80.66195312 118.58427734 79.296875 118.16015625 C78.12640625 117.79792969 76.9559375 117.43570313 75.75 117.0625 C74.58984375 116.70285156 73.4296875 116.34320313 72.234375 115.97265625 C69.82910942 115.24933363 67.44345956 114.57457589 65 114 C64.86464844 113.1028125 64.72929687 112.205625 64.58984375 111.28125 C60.50129777 87.58237272 47.83524623 67.02066666 28.1484375 53.02734375 C13.78260321 43.77688718 -2.77099003 37.88537703 -19.9296875 37.796875 C-20.7970755 37.79117493 -21.6644635 37.78547485 -22.55813599 37.77960205 C-24.39551585 37.77017125 -26.23291249 37.76362571 -28.0703125 37.75976562 C-30.83104674 37.75015304 -33.59100571 37.71915096 -36.3515625 37.6875 C-49.97809942 37.60438982 -62.94165876 38.64531967 -75.625 44.125 C-76.32882813 44.422854 -77.03265625 44.72070801 -77.7578125 45.02758789 C-84.84182588 48.15812505 -90.91042402 52.22484069 -97 57 C-97.81984375 57.63679688 -98.6396875 58.27359375 -99.484375 58.9296875 C-116.11544107 72.75067689 -125.14689283 93.15266225 -129 114 C-131.0829243 114.64715133 -133.16635539 115.29267166 -135.25 115.9375 C-136.99023438 116.47697266 -136.99023438 116.47697266 -138.765625 117.02734375 C-141.17271502 117.75121502 -143.56074155 118.40409751 -146 119 C-147.00270607 88.71056357 -140.54045864 60.27918646 -120 37 C-119.31292969 36.18144531 -118.62585938 35.36289063 -117.91796875 34.51953125 C-89.90736048 1.96666218 -41.37999768 -13.80762617 0 0 Z " fill="#FEFEFE" transform="translate(262,52)"/>
<path d="M0 0 C1.66865366 0.00373608 3.33730954 0.00658024 5.00596619 0.00857544 C9.37069898 0.0161651 13.73529597 0.03577282 18.09997559 0.0579834 C22.56467859 0.07854306 27.0294038 0.08759868 31.49414062 0.09765625 C40.23443691 0.11902368 48.97462337 0.15310239 57.71484375 0.1953125 C57.71484375 0.5253125 57.71484375 0.8553125 57.71484375 1.1953125 C56.93471924 1.19942139 56.15459473 1.20353027 55.35083008 1.20776367 C51.74228326 1.24109467 48.13533789 1.31178182 44.52734375 1.3828125 C43.30080078 1.38861328 42.07425781 1.39441406 40.81054688 1.40039062 C26.4280199 1.7419282 12.95763183 7.01090287 2.46484375 17.0078125 C-8.72377416 28.89571903 -13.56369456 42.88268802 -13.60400391 59.02954102 C-13.61907234 60.43602654 -13.61907234 60.43602654 -13.63444519 61.8709259 C-13.66508383 64.93868453 -13.68225824 68.00635667 -13.69921875 71.07421875 C-13.71794596 73.21370681 -13.73752051 75.3531876 -13.75790405 77.49266052 C-13.80906716 83.10014549 -13.84877732 88.70765436 -13.88604736 94.31524658 C-13.92618651 100.0468123 -13.97723351 105.77827994 -14.02734375 111.50976562 C-14.12391558 122.73821219 -14.20838 133.96671434 -14.28515625 145.1953125 C-18.92819192 144.42400986 -21.98219084 142.64773335 -25.72265625 139.8828125 C-26.64171753 139.21076782 -26.64171753 139.21076782 -27.5793457 138.52514648 C-32.98829627 134.51357156 -38.24636111 130.35588879 -43.2199707 125.81347656 C-46.09330512 123.20680702 -49.06344234 120.78477141 -52.10717773 118.38037109 C-59.41991373 112.27584289 -66.22159857 106.45531083 -67.87280273 96.69018555 C-68.48792878 89.5184467 -68.09677312 82.42855195 -67.66015625 75.2578125 C-67.59036497 72.79645261 -67.52911808 70.3348351 -67.4765625 67.87304688 C-66.90181572 48.32796053 -64.34284152 30.9074524 -50.28515625 16.1953125 C-35.08828134 2.74089494 -19.56413136 -0.1292668 0 0 Z " fill="#FD646F" transform="translate(132.28515625,326.8046875)"/>
<path d="M0 0 C-2.81196303 1.87464202 -5.61749238 3.19878879 -8.69873047 4.56176758 C-30.2406088 14.19101068 -46.66040258 30.34680225 -55.94140625 52.15234375 C-61.57669409 67.31147598 -62.15611889 81.07587309 -62 97 C-60.515 96.01 -60.515 96.01 -59 95 C-52.32662295 94.23420263 -52.32662295 94.23420263 -49.1796875 96.05078125 C-45.90565857 98.73168899 -44.16640022 100.53567804 -43.6875 104.75 C-44.08246849 108.85767229 -45.4057632 110.82926614 -48 114 C-51.03784773 116.15589193 -53.35459734 116.06005606 -57 116 C-44.25521069 143.01488585 -27.43960483 158.91725051 0 170 C0 170.33 0 170.66 0 171 C-25.06886814 172.44442902 -45.70861318 164.15599149 -64.65234375 147.6953125 C-74.33070289 138.59854967 -81.13251705 127.31300034 -86 115 C-86.44279297 113.9171875 -86.44279297 113.9171875 -86.89453125 112.8125 C-94.23577696 93.13940805 -92.55020233 70.39052067 -84.31494141 51.36938477 C-74.56527119 30.14853656 -57.50227754 13.17130496 -35.55371094 4.84814453 C-23.61852335 0.61578645 -12.51036503 -0.43867514 0 0 Z " fill="#FDBD87" transform="translate(330,223)"/>
<path d="M0 0 C4.73931362 3.98546575 9.18168622 8.11319851 13.49609375 12.55859375 C15.44231459 14.45623497 17.40091552 16.21879698 19.46289062 17.98266602 C27.67676929 25.15011005 35.34405278 32.93332225 43.09298038 40.59635162 C45.86210377 43.33474977 48.63870091 46.06451894 51.43432617 48.77587891 C54.15856806 51.41827921 56.86276138 54.07971222 59.5538311 56.75587463 C60.57767722 57.76748508 61.60839136 58.77219431 62.64604378 59.76963806 C64.09120626 61.16145071 65.50931893 62.58118577 66.92602539 64.00195312 C67.73906631 64.80024536 68.55210724 65.5985376 69.38978577 66.42102051 C71 69 71 69 70.89346313 72.62600708 C69.80443636 76.73850873 67.83584413 79.01655163 64.86328125 81.8984375 C64.34622116 82.41886627 63.82916107 82.93929504 63.2964325 83.47549438 C62.20496753 84.56666169 61.10606168 85.65043134 60.00024414 86.72705078 C58.31538162 88.37218633 56.66190054 90.04472592 55.00976562 91.72265625 C53.94185101 92.7830122 52.87224361 93.84166658 51.80078125 94.8984375 C51.06448235 95.64521255 51.06448235 95.64521255 50.31330872 96.40707397 C48.06955927 98.56146962 45.98707383 100.00567319 43.13745117 101.25634766 C38.03046455 100.83907772 35.49941926 97.52278098 32 94 C31.23678436 93.25952423 30.47356873 92.51904846 29.68722534 91.75613403 C27.12277452 89.25547344 24.58842285 86.72707238 22.05859375 84.19140625 C21.13208511 83.26585434 20.20557648 82.34030243 19.25099182 81.38670349 C17.30217639 79.43935145 15.35515263 77.49023087 13.40942383 75.53979492 C10.93636139 73.06103605 8.45883467 70.58679569 5.97993374 68.1138773 C3.58703799 65.72549855 1.19799682 63.3332792 -1.19140625 60.94140625 C-2.07075333 60.0640834 -2.9501004 59.18676056 -3.85609436 58.28285217 C-8.22969094 53.89273602 -12.46962711 49.44988618 -16.49047852 44.73313904 C-19.00070275 41.8510551 -21.7141363 39.17894246 -24.4375 36.5 C-24.97826172 35.96375 -25.51902344 35.4275 -26.07617188 34.875 C-27.38176617 33.58095964 -28.69052996 32.29011826 -30 31 C-24.33425951 24.07189276 -17.96966361 17.85795858 -11.625 11.5625 C-10.49586045 10.43838533 -9.36695222 9.31403826 -8.23828125 8.18945312 C-5.49484812 5.45694765 -2.74830015 2.72760991 0 0 Z " fill="#A69BA7" transform="translate(436,390)"/>
<path d="M0 0 C-3.12146206 1.66460877 -6.00467293 2.49468459 -9.48095703 3.18994141 C-35.9572246 8.56237466 -60.57825859 24.6229607 -75.77636719 47.08349609 C-87.95022887 66.15069765 -94.41496058 85.54532893 -94.3125 108.25 C-94.30758545 109.53471191 -94.3026709 110.81942383 -94.29760742 112.14306641 C-94.18622466 121.1485059 -93.57435915 129.32847445 -91 138 C-90.67128906 139.19625 -90.34257812 140.3925 -90.00390625 141.625 C-85.73352671 155.81034381 -78.8971663 168.93733728 -69 180 C-67.93652344 181.25876953 -67.93652344 181.25876953 -66.8515625 182.54296875 C-49.21075292 203.0001181 -25.81982135 212.4930527 0 218 C0 218.33 0 218.66 0 219 C-31.50626826 220.18395163 -58.55744802 210.69579187 -81.92578125 189.32421875 C-98.09886309 174.02898618 -109.12163074 154.7774716 -114 133 C-114.22300781 132.1028125 -114.44601563 131.205625 -114.67578125 130.28125 C-120.51608063 102.62922029 -113.62791785 73.71937277 -99 50 C-82.35894236 25.59703561 -59.52179242 9.66167771 -31 2 C-30.09121094 1.7525 -29.18242187 1.505 -28.24609375 1.25 C-19.03501666 -0.82573568 -9.38226763 -0.16540726 0 0 Z " fill="#28A6FD" transform="translate(331,199)"/>
<path d="M0 0 C1.2890625 0.00322266 2.578125 0.00644531 3.90625 0.00976562 C5.25260486 0.01811892 6.59895902 0.02658384 7.9453125 0.03515625 C9.31510254 0.04017795 10.68489435 0.04473968 12.0546875 0.04882812 C15.3932744 0.06058371 18.73177065 0.07701661 22.0703125 0.09765625 C21.7403125 0.75765625 21.4103125 1.41765625 21.0703125 2.09765625 C18.36082146 2.76145138 15.6823061 3.32498487 12.9453125 3.84765625 C-15.22793127 9.73464437 -39.8684099 26.80471601 -55.8828125 50.76953125 C-57.88539628 54.02564075 -59.67566347 57.32725194 -61.4296875 60.72265625 C-63.70782992 65.11584083 -66.14863484 68.77742725 -69.3671875 72.53515625 C-78.97222993 83.80921798 -85.87792373 97.45311354 -87.9296875 112.16015625 C-88.58984375 115.3984375 -88.58984375 115.3984375 -89.9296875 118.09765625 C-94.09677415 120.46695851 -98.23329764 121.32371934 -102.9296875 122.09765625 C-104.26537183 122.42144051 -105.59929492 122.75277299 -106.9296875 123.09765625 C-107.93239357 92.80821982 -101.47014614 64.37684271 -80.9296875 41.09765625 C-80.24261719 40.27910156 -79.55554688 39.46054688 -78.84765625 38.6171875 C-59.8440068 16.53186517 -29.73986539 -0.13159232 0 0 Z " fill="#E9F4FD" transform="translate(222.9296875,47.90234375)"/>
<path d="M0 0 C0.6276123 0.19118408 1.25522461 0.38236816 1.90185547 0.5793457 C7.28842333 2.20953132 12.68317097 3.75283598 18.125 5.1875 C18.7953125 5.36474609 19.465625 5.54199219 20.15625 5.72460938 C21.77044343 6.15121764 23.38516256 6.57583603 25 7 C25.05945801 7.5669458 25.11891602 8.1338916 25.18017578 8.71801758 C28.09434469 35.38829821 35.81116863 57.21902943 53 78 C54.33509608 79.66525494 55.66869362 81.33171379 57 83 C55.51161293 86.84307991 54.01808072 90.68411795 52.52001953 94.5234375 C52.01246116 95.82628868 51.50624399 97.12966327 51.00146484 98.43359375 C48.28551257 105.44666654 45.52763902 112.3478807 42 119 C40.15367126 118.80314636 40.15367126 118.80314636 38 118 C36.67945862 115.89668274 36.67945862 115.89668274 35.54125977 113.1496582 C35.1187796 112.14931549 34.69629944 111.14897278 34.26101685 110.11831665 C33.84488129 109.08927216 33.42874573 108.06022766 33 107 C32.6158493 106.07867279 32.23169861 105.15734558 31.83590698 104.20809937 C30.65123657 101.34803759 29.49289751 98.47841461 28.33984375 95.60546875 C27.91266052 94.54764191 27.48547729 93.48981506 27.04534912 92.39993286 C24.72243647 86.64312872 22.41408367 80.88056688 20.1105957 75.1159668 C19.17305932 72.77247543 18.2351553 70.42913111 17.296875 68.0859375 C16.83798386 66.93956314 16.37909271 65.79318878 15.90629578 64.61207581 C13.36195594 58.2866473 10.7348161 52.01349673 7.953125 45.7890625 C1.03104793 30.1364356 -1.79634988 17.15744434 0 0 Z " fill="#F5A86C" transform="translate(190,303)"/>
<path d="M0 0 C5.01037451 2.22181077 8.35594527 5.98775692 12.1875 9.8125 C12.92419922 10.52470703 13.66089844 11.23691406 14.41992188 11.97070312 C15.47083008 13.01581055 15.47083008 13.01581055 16.54296875 14.08203125 C17.5023938 15.02912964 17.5023938 15.02912964 18.48120117 15.99536133 C20.30615509 18.40408928 20.84922621 19.98541805 21 23 C20.05639648 24.74609375 20.05639648 24.74609375 18.43359375 26.4375 C17.78503418 27.12328125 17.13647461 27.8090625 16.46826172 28.515625 C15.65373535 29.33546875 14.83920898 30.1553125 14 31 C12.9623304 32.05722106 11.92473835 33.11451824 10.88720703 34.171875 C7.30304545 37.80557893 3.68396668 41.4035415 0.0625 45 C-1.20661373 46.2640885 -2.47549589 47.52840956 -3.74414062 48.79296875 C-6.8267632 51.86466724 -9.91250428 54.93320008 -13 58 C-9.07711742 62.70341126 -4.98981304 67.14273951 -0.625 71.4375 C-0.07972656 71.97826172 0.46554687 72.51902344 1.02734375 73.07617188 C2.34923464 74.38646723 3.67427618 75.69358284 5 77 C-1.19596564 84.40493454 -7.61162169 90.82435726 -15.1875 96.8125 C-15.79400391 97.29299805 -16.40050781 97.77349609 -17.02539062 98.26855469 C-19.91437844 100.51749603 -22.69645168 102.43450084 -26 104 C-25.95174072 102.68507568 -25.90348145 101.37015137 -25.85375977 100.01538086 C-25.69272657 95.06698689 -25.63376907 90.12142943 -25.60327148 85.1706543 C-25.57642264 83.04155707 -25.52305342 80.91260327 -25.44116211 78.78491211 C-24.73697763 65.11475504 -24.73697763 65.11475504 -30.43701172 53.15673828 C-33.98314494 49.38990299 -37.83640514 46.06575138 -42 43 C-39.22424796 40.11418033 -36.20985928 38.03968144 -32.875 35.8125 C-18.8236679 26.21218676 -9.12800596 14.25162784 0 0 Z " fill="#0693FB" transform="translate(420,362)"/>
<path d="M0 0 C1.80431051 2.70646576 2.98631352 5.29427249 4.20605469 8.29199219 C14.0377329 32.20415823 31.26181482 48.38375322 54 60 C54 68.25 54 76.5 54 85 C36.18 85 18.36 85 0 85 C0 56.95 0 28.9 0 0 Z " fill="#883F2E" transform="translate(136,242)"/>
<path d="M0 0 C6.22517349 5.0705801 11.77546162 10.74151255 17.37210274 16.48032951 C20.29165618 19.4691724 23.22838615 22.44109191 26.16210938 25.41601562 C29.88036145 29.18832355 33.59321513 32.96552219 37.2878418 36.76098633 C40.28929883 39.84345871 43.30747639 42.90863457 46.33765984 45.96286201 C47.48623551 47.12687519 48.62849142 48.29715979 49.76419258 49.47373772 C51.34855505 51.11351386 52.95335066 52.73030128 54.56469727 54.34350586 C55.47179947 55.26916855 56.37890167 56.19483124 57.31349182 57.14854431 C59.89667553 59.32199292 59.89667553 59.32199292 63.20533752 58.8899231 C66.36949078 57.88234057 67.79827944 56.78375829 70.0859375 54.40234375 C70.78847656 53.68369141 71.49101562 52.96503906 72.21484375 52.22460938 C72.92769531 51.46986328 73.64054687 50.71511719 74.375 49.9375 C75.47908203 48.79958008 75.47908203 48.79958008 76.60546875 47.63867188 C78.41546705 45.7699074 80.21275293 43.89049188 82 42 C85.8078835 43.80201767 88.37485675 45.62481582 91 49 C90.93615009 53.99948496 89.86784379 56.82157636 86.38142395 60.42660522 C85.88043686 60.91230988 85.37944977 61.39801453 84.86328125 61.8984375 C84.08769112 62.67908066 84.08769112 62.67908066 83.2964325 63.47549438 C82.20496753 64.56666169 81.10606168 65.65043134 80.00024414 66.72705078 C78.31538162 68.37218633 76.66190054 70.04472592 75.00976562 71.72265625 C73.94185101 72.7830122 72.87224361 73.84166658 71.80078125 74.8984375 C71.06448235 75.64521255 71.06448235 75.64521255 70.31330872 76.40707397 C68.06955927 78.56146962 65.98707383 80.00567319 63.13745117 81.25634766 C58.03046455 80.83907772 55.49941926 77.52278098 52 74 C51.23678436 73.25952423 50.47356873 72.51904846 49.68722534 71.75613403 C47.12277452 69.25547344 44.58842285 66.72707238 42.05859375 64.19140625 C41.13208511 63.26585434 40.20557648 62.34030243 39.25099182 61.38670349 C37.30217639 59.43935145 35.35515263 57.49023087 33.40942383 55.53979492 C30.93636139 53.06103605 28.45883467 50.58679569 25.97993374 48.1138773 C23.58703799 45.72549855 21.19799682 43.3332792 18.80859375 40.94140625 C17.92924667 40.0640834 17.0498996 39.18676056 16.14390564 38.28285217 C11.77030906 33.89273602 7.53037289 29.44988618 3.50952148 24.73313904 C0.99929725 21.8510551 -1.7141363 19.17894246 -4.4375 16.5 C-4.97826172 15.96375 -5.51902344 15.4275 -6.07617188 14.875 C-7.38176617 13.58095964 -8.69052996 12.29011826 -10 11 C-6.79239749 7.19364503 -3.59253891 3.45436433 0 0 Z " fill="#928492" transform="translate(416,410)"/>
<path d="M0 0 C0.33 0 0.66 0 1 0 C1 4.95 1 9.9 1 15 C2.505625 14.34 4.01125 13.68 5.5625 13 C9.89818141 11.09942733 13.28835624 10.92240216 18 11 C17.99333817 11.66382187 17.98667633 12.32764374 17.97981262 13.01158142 C17.9127467 20.00498544 17.86790809 26.99829617 17.83520508 33.99194336 C17.82024329 36.59191609 17.79986657 39.19186413 17.77368164 41.79174805 C17.63274294 56.1592054 17.62142099 69.97400888 21 84 C11.40511852 84.09237287 4.00437098 81.8509803 -3.0390625 75.0234375 C-11.32971045 66.25042458 -12.51114619 58.82580448 -12.4375 47.0625 C-12.45748047 45.93392578 -12.47746094 44.80535156 -12.49804688 43.64257812 C-12.49346807 35.77161907 -11.64567833 28.92495389 -6.11328125 22.96875 C-5.51902344 22.4840625 -4.92476563 21.999375 -4.3125 21.5 C1.14033092 15.81414212 0.05882828 7.39555553 0 0 Z " fill="#F4A76B" transform="translate(115,156)"/>
<path d="M0 0 C1.81640625 0.20703125 1.81640625 0.20703125 4 1 C5.52734375 3.07421875 5.52734375 3.07421875 6.9375 5.6875 C12.44730236 15.25501395 18.6105301 19.58352688 28 25 C27.796875 26.81640625 27.796875 26.81640625 27 29 C24.890625 30.52734375 24.890625 30.52734375 22.25 31.9375 C13.34803283 36.98448424 8.20163936 44.40876778 3 53 C1.1953125 52.84765625 1.1953125 52.84765625 -1 52 C-2.5703125 49.55859375 -2.5703125 49.55859375 -4.125 46.4375 C-9.00223453 37.63545227 -16.21930814 32.58123054 -25 28 C-24.7578125 26.1484375 -24.7578125 26.1484375 -24 24 C-22.1796875 22.7265625 -22.1796875 22.7265625 -19.875 21.625 C-11.07369835 17.00815238 -6.80163464 11.63699605 -2 3 C-1.34 2.01 -0.68 1.02 0 0 Z " fill="#FDFEFF" transform="translate(401,196)"/>
<path d="M0 0 C2.5 1.5625 2.5 1.5625 4 4 C3.86379803 11.92066831 -0.61295724 18.38458669 -4.31445312 25.16992188 C-4.81267578 26.11802734 -5.31089844 27.06613281 -5.82421875 28.04296875 C-6.28916748 28.89914795 -6.75411621 29.75532715 -7.2331543 30.63745117 C-8.24992872 32.97169009 -8.24992872 32.97169009 -7.26904297 35.17773438 C-5.60028609 37.57396395 -3.60216944 39.35630595 -1.4375 41.3125 C3.64130315 46.31734 3.64130315 46.31734 4.4375 49.75 C4 53 4 53 1.4375 56 C-2 58 -2 58 -4.875 58.3125 C-8.8256098 56.65324388 -11.00749977 54.30422621 -13.90625 51.19921875 C-16.54448141 48.42809135 -19.40716629 45.99916931 -22.3359375 43.54296875 C-24 42 -24 42 -26 39 C-25.72146647 33.70586765 -24.10645889 29.48337446 -21.7265625 24.82421875 C-21.23994644 23.8473687 -21.23994644 23.8473687 -20.74349976 22.8507843 C-20.06073241 21.48622286 -19.37304418 20.12411344 -18.68066406 18.7644043 C-17.62231752 16.68222252 -16.58368508 14.59102147 -15.546875 12.49804688 C-14.87875156 11.16869354 -14.20951925 9.83989681 -13.5390625 8.51171875 C-13.22957672 7.88778732 -12.92009094 7.2638559 -12.60122681 6.62101746 C-9.50478795 0.59332447 -6.73670388 -0.70912672 0 0 Z " fill="#CB6F5A" transform="translate(234,172)"/>
<path d="M0 0 C0.33 0 0.66 0 1 0 C0.99097656 1.2065625 0.98195313 2.413125 0.97265625 3.65625 C0.70250213 13.92628157 0.70250213 13.92628157 5.3125 22.625 C6.5351478 23.75708129 7.76388534 24.88263871 9 26 C14.58744205 32.94393087 13.36685243 41.60315543 13 50 C12.44127197 49.88406494 11.88254395 49.76812988 11.30688477 49.64868164 C8.72627597 49.11572693 6.14441541 48.58908684 3.5625 48.0625 C2.68400391 47.88009766 1.80550781 47.69769531 0.90039062 47.50976562 C0.02705078 47.33251953 -0.84628906 47.15527344 -1.74609375 46.97265625 C-2.53685303 46.81031494 -3.3276123 46.64797363 -4.14233398 46.48071289 C-8.07039763 45.81993909 -12.04110944 45.43987673 -16 45 C-16 34.44 -16 23.88 -16 13 C-8 13 -8 13 -1 16 C-0.67 10.72 -0.34 5.44 0 0 Z " fill="#FDBC87" transform="translate(344,154)"/>
<path d="M0 0 C1.32 0.99 2.64 1.98 4 3 C7.61817433 2.72863692 9.67882372 1.66058814 13 0 C18.94 5.94 24.88 11.88 31 18 C24.62432649 25.43828576 18.4415866 31.78230024 10.8125 37.8125 C9.90274414 38.53324707 9.90274414 38.53324707 8.97460938 39.26855469 C6.0437419 41.55009738 3.34141662 43.32929169 0 45 C0 30.15 0 15.3 0 0 Z " fill="#C5DFFC" transform="translate(394,421)"/>
<path d="M0 0 C4.09521128 3.51018109 5.92830811 7.09305578 6.6875 12.3125 C5.97281284 17.40464599 4.55761621 21.78061514 0.609375 25.26953125 C-3.54909902 27.92009014 -6.99850649 28.63510424 -11.8125 27.875 C-16.07166929 26.02489874 -19.07421153 23.89014664 -21.8125 20.125 C-23.54618555 14.49052196 -23.79246509 9.952526 -21.25 4.5625 C-14.88357278 -2.45689411 -8.81053685 -3.52421474 0 0 Z " fill="#CB705A" transform="translate(186.8125,168.125)"/>
<path d="M0 0 C0.99 0 1.98 0 3 0 C4.4375 2.16015625 4.4375 2.16015625 6 5.0625 C9.40020512 10.74413308 13.06769617 13.45501813 18.83984375 16.5625 C19.55269531 17.036875 20.26554687 17.51125 21 18 C21 18.99 21 19.98 21 21 C18.8046875 22.5078125 18.8046875 22.5078125 15.875 24.125 C9.50471028 27.97508489 6.27629536 32.44740927 3 39 C1.16015625 38.7890625 1.16015625 38.7890625 -1 38 C-2.31640625 35.9609375 -2.31640625 35.9609375 -3.5625 33.375 C-7.01628696 27.16353819 -11.85786471 24.30057804 -18 21 C-17.63493948 18.48690224 -17.43046029 17.32567043 -15.36328125 15.76171875 C-14.68652344 15.40722656 -14.00976562 15.05273438 -13.3125 14.6875 C-7.89910738 11.53453835 -4.41643457 7.46564536 -1.3125 2.0625 C-0.6628125 1.0415625 -0.6628125 1.0415625 0 0 Z " fill="#FDFEFF" transform="translate(416,144)"/>
<path d="M0 0 C4.09688229 2.61879142 7.13805266 5.45543658 9 10 C9.48578712 15.24650092 8.8850004 18.57633272 6 23 C3.09344728 26.42824167 1.58450461 27.73048207 -2.84765625 28.484375 C-7.63939196 28.69813273 -11.7413753 28.83011614 -15.625 25.75 C-19.89002002 20.81155577 -20.51257008 17.14390983 -20.375 10.6953125 C-19.76406788 6.30423787 -18.37740576 4.87438788 -15 2 C-9.91192822 -0.97604198 -5.56997013 -1.98771483 0 0 Z " fill="#CB6F5A" transform="translate(288,167)"/>
<path d="M0 0 C3.68069887 1.53643852 5.98775204 3.78150945 8.75 6.625 C9.54921875 7.44226563 10.3484375 8.25953125 11.171875 9.1015625 C11.77515625 9.72804688 12.3784375 10.35453125 13 11 C12.2980249 11.69689941 11.5960498 12.39379883 10.87280273 13.11181641 C8.42252076 15.56172198 6.01869145 18.05278881 3.62330627 20.5562439 C1.37658678 22.89710106 -0.88930655 25.21903146 -3.15600586 27.54052734 C-4.3481841 28.76815888 -5.53403953 30.00196099 -6.71362305 31.24169922 C-8.42690155 33.03977468 -10.16173197 34.81436003 -11.90234375 36.5859375 C-12.42440903 37.14413177 -12.9464743 37.70232605 -13.48435974 38.2774353 C-15.01147461 39.80615234 -15.01147461 39.80615234 -18 42 C-21.53161293 41.93525068 -23.21528076 41.67330849 -25.8984375 39.37109375 C-26.62933594 38.41396484 -26.62933594 38.41396484 -27.375 37.4375 C-28.12910156 36.47650391 -28.12910156 36.47650391 -28.8984375 35.49609375 C-29.26195312 35.00238281 -29.62546875 34.50867188 -30 34 C-29.33613281 33.40832031 -28.67226563 32.81664062 -27.98828125 32.20703125 C-21.32735711 26.27772216 -21.32735711 26.27772216 -15 20 C-14.09507812 19.05253906 -14.09507812 19.05253906 -13.171875 18.0859375 C-7.99471289 12.49381202 -3.90741876 6.53271573 0 0 Z " fill="#27A6FD" transform="translate(420,362)"/>
<path d="M0 0 C4.01948827 1.24870132 7.12475334 4.02425579 10.37890625 6.6171875 C15.66606704 10.55059446 20.80234585 12.24300963 27.125 13.66015625 C25.475 18.28015625 23.825 22.90015625 22.125 27.66015625 C11.04221907 27.23389544 1.12694858 21.0700324 -6.875 13.66015625 C-9.20249345 10.16891608 -9.37799316 8.76793374 -8.875 4.66015625 C-6.61001869 1.21738465 -4.21509606 -0.20893795 0 0 Z " fill="#CA705A" transform="translate(197.875,249.33984375)"/>
<path d="M0 0 C2.86624771 2.44825325 4.61349969 4.24877735 5.44140625 8 C5.65821147 11.69268247 5.10798801 13.83081878 3.125 16.9375 C0.22627065 19.75097261 -0.62217779 19.96221778 -4.75 20.375 C-8.23710971 20.31148252 -9.2276555 19.86754589 -12.4375 18 C-15.17669053 14.79314279 -16.01265832 13.11176725 -16.23828125 8.99609375 C-15.74171407 4.83632607 -13.38927916 2.1411936 -10.25 -0.4375 C-6.66498744 -1.33375314 -3.46638537 -1.16003788 0 0 Z " fill="#FEBD86" transform="translate(354,245)"/>
<path d="M0 0 C2.9375 2.4375 2.9375 2.4375 5 5 C5.33 5.33 5.66 5.66 6 6 C6.38270052 10.9751068 6.17088582 14.06372795 3 18 C-0.03489564 20.5290797 -1.51887435 21 -5.5 21 C-9.62653166 19.82099095 -11.28809794 18.27023484 -14 15 C-15.41000664 12.17998673 -15.24548451 10.12992745 -15 7 C-13.75436665 4.25960663 -12.68864555 2.5356132 -10.3125 0.6875 C-6.83294994 -0.34696083 -3.55197442 -0.71885197 0 0 Z " fill="#FEBD86" transform="translate(373,304)"/>
<path d="M0 0 C5.57894737 3.15789474 5.57894737 3.15789474 7 6 C7.55512815 10.63213493 7.6364242 13.98172127 5.125 18 C1.85159987 21.08084718 -0.46126475 21.33387487 -4.9609375 21.29296875 C-8.13134567 20.83745033 -9.8192402 19.24684343 -12 17 C-13.73631636 13.52736727 -13.60190402 9.78806987 -13 6 C-9.08606917 1.05608737 -6.27104539 -0.60298513 0 0 Z " fill="#FEBD86" transform="translate(334,341)"/>
<path d="M0 0 C3.37495058 0.02428022 5.14420406 0.59958588 7.75 2.75 C10.48324942 5.54991404 11.19379054 6.33035679 11.625 10.125 C11.23470973 14.18401885 9.81662622 16.20801684 7.3125 19.375 C3.5635077 21.24949615 -0.61470547 21.03355233 -4.6875 20.375 C-7.52814179 18.67563151 -8.03604524 17.45771556 -9.6875 14.375 C-10.41130155 11.28074837 -10.20953325 9.66380946 -9.6875 6.375 C-7.25 3.4375 -7.25 3.4375 -4.6875 1.375 C-3.6875 0.375 -3.6875 0.375 0 0 Z " fill="#F6A96D" transform="translate(274.6875,317.625)"/>
<path d="M0 0 C3.02519989 2.05971056 4.66926776 3.51573824 5.48046875 7.15625 C5.7530672 11.57676536 5.43956037 13.44476585 2.625 17 C-1.47126303 20.12096231 -3.81739837 20.43920353 -9 20 C-11.75329021 18.20437595 -13.52627461 16.94745078 -15 14 C-15.42074378 10.94059163 -15.47999423 8.0540292 -15 5 C-10.58053726 -0.73335706 -6.94670018 -1.6767897 0 0 Z " fill="#FEBD86" transform="translate(317,282)"/>
</svg>
